<svg width="491" height="32" viewBox="0 0 491 32" fill="none" xmlns="http://www.w3.org/2000/svg">
<path d="M4.204 24V19.974H9.682C10.694 19.974 11.486 19.677 12.058 19.083C12.63 18.489 12.916 17.763 12.916 16.905C12.916 16.311 12.784 15.783 12.52 15.321C12.256 14.859 11.882 14.496 11.398 14.232C10.936 13.968 10.364 13.836 9.682 13.836H4.204V9.909H9.253C10.111 9.909 10.804 9.7 11.332 9.282C11.86 8.842 12.124 8.182 12.124 7.302C12.124 6.444 11.86 5.806 11.332 5.388C10.804 4.948 10.111 4.728 9.253 4.728H4.204V0.701999H10.243C11.739 0.701999 13.004 0.976999 14.038 1.527C15.094 2.077 15.897 2.814 16.447 3.738C16.997 4.662 17.272 5.685 17.272 6.807C17.272 8.237 16.81 9.447 15.886 10.437C14.962 11.427 13.598 12.109 11.794 12.483L11.926 10.734C13.884 11.108 15.391 11.867 16.447 13.011C17.525 14.155 18.064 15.563 18.064 17.235C18.064 18.511 17.745 19.666 17.107 20.7C16.491 21.712 15.589 22.515 14.401 23.109C13.235 23.703 11.827 24 10.177 24H4.204ZM0.244 24V0.701999H5.359V24H0.244ZM28.0506 24.363C26.5766 24.363 25.2676 24.066 24.1236 23.472C23.0016 22.856 22.1216 22.02 21.4836 20.964C20.8456 19.886 20.5266 18.654 20.5266 17.268V7.962H25.5756V17.202C25.5756 17.752 25.6636 18.225 25.8396 18.621C26.0376 19.017 26.3236 19.325 26.6976 19.545C27.0716 19.765 27.5226 19.875 28.0506 19.875C28.7986 19.875 29.3926 19.644 29.8326 19.182C30.2726 18.698 30.4926 18.038 30.4926 17.202V7.962H35.5416V17.235C35.5416 18.643 35.2226 19.886 34.5846 20.964C33.9466 22.02 33.0666 22.856 31.9446 23.472C30.8226 24.066 29.5246 24.363 28.0506 24.363ZM45.5427 24.33C44.0247 24.33 42.6717 23.967 41.4837 23.241C40.3177 22.515 39.3937 21.525 38.7117 20.271C38.0517 19.017 37.7217 17.587 37.7217 15.981C37.7217 14.375 38.0517 12.945 38.7117 11.691C39.3937 10.437 40.3177 9.447 41.4837 8.721C42.6717 7.995 44.0247 7.632 45.5427 7.632C46.6427 7.632 47.6327 7.841 48.5127 8.259C49.4147 8.677 50.1517 9.26 50.7237 10.008C51.3177 10.734 51.6477 11.57 51.7137 12.516V19.281C51.6477 20.227 51.3287 21.085 50.7567 21.855C50.1847 22.603 49.4477 23.208 48.5457 23.67C47.6437 24.11 46.6427 24.33 45.5427 24.33ZM46.4337 19.776C47.1597 19.776 47.7867 19.622 48.3147 19.314C48.8427 18.984 49.2607 18.533 49.5687 17.961C49.8767 17.389 50.0307 16.729 50.0307 15.981C50.0307 15.233 49.8767 14.584 49.5687 14.034C49.2827 13.462 48.8647 13.011 48.3147 12.681C47.7867 12.351 47.1707 12.186 46.4667 12.186C45.7627 12.186 45.1357 12.351 44.5857 12.681C44.0577 13.011 43.6287 13.462 43.2987 14.034C42.9907 14.606 42.8367 15.255 42.8367 15.981C42.8367 16.707 42.9907 17.356 43.2987 17.928C43.6067 18.5 44.0357 18.951 44.5857 19.281C45.1357 19.611 45.7517 19.776 46.4337 19.776ZM54.7827 24H49.8327V19.677L50.5917 15.783L49.7337 11.889V0.0419996H54.7827V24ZM65.1357 31.194C63.3757 31.194 61.8247 30.886 60.4827 30.27C59.1627 29.676 58.1177 28.829 57.3477 27.729L60.4497 24.627C61.0217 25.309 61.6597 25.826 62.3637 26.178C63.0897 26.53 63.9587 26.706 64.9707 26.706C66.2247 26.706 67.2037 26.398 67.9077 25.782C68.6337 25.166 68.9967 24.297 68.9967 23.175V19.083L69.8547 15.585L69.0957 12.087V7.962H74.0457V23.043C74.0457 24.693 73.6607 26.123 72.8907 27.333C72.1207 28.543 71.0647 29.489 69.7227 30.171C68.3807 30.853 66.8517 31.194 65.1357 31.194ZM64.9047 23.505C63.4307 23.505 62.1217 23.153 60.9777 22.449C59.8337 21.745 58.9317 20.788 58.2717 19.578C57.6117 18.368 57.2817 17.026 57.2817 15.552C57.2817 14.056 57.6117 12.714 58.2717 11.526C58.9317 10.316 59.8337 9.37 60.9777 8.688C62.1217 7.984 63.4307 7.632 64.9047 7.632C66.0047 7.632 66.9837 7.841 67.8417 8.259C68.7217 8.655 69.4257 9.227 69.9537 9.975C70.5037 10.701 70.8117 11.548 70.8777 12.516V18.621C70.8117 19.567 70.5037 20.414 69.9537 21.162C69.4257 21.888 68.7217 22.46 67.8417 22.878C66.9617 23.296 65.9827 23.505 64.9047 23.505ZM65.8617 19.017C66.5657 19.017 67.1707 18.863 67.6767 18.555C68.2047 18.247 68.6007 17.84 68.8647 17.334C69.1507 16.806 69.2937 16.212 69.2937 15.552C69.2937 14.892 69.1507 14.298 68.8647 13.77C68.6007 13.242 68.2047 12.824 67.6767 12.516C67.1707 12.208 66.5657 12.054 65.8617 12.054C65.1797 12.054 64.5747 12.208 64.0467 12.516C63.5187 12.824 63.1117 13.242 62.8257 13.77C62.5397 14.298 62.3967 14.892 62.3967 15.552C62.3967 16.168 62.5397 16.751 62.8257 17.301C63.1117 17.829 63.5077 18.247 64.0137 18.555C64.5417 18.863 65.1577 19.017 65.8617 19.017ZM85.5291 24.363C83.7911 24.363 82.2401 24.011 80.8761 23.307C79.5341 22.581 78.4781 21.58 77.7081 20.304C76.9381 19.028 76.5531 17.587 76.5531 15.981C76.5531 14.375 76.9271 12.945 77.6751 11.691C78.4451 10.415 79.4791 9.414 80.7771 8.688C82.0751 7.962 83.5381 7.599 85.1661 7.599C86.7501 7.599 88.1471 7.94 89.3571 8.622C90.5671 9.304 91.5131 10.25 92.1951 11.46C92.8991 12.67 93.2511 14.056 93.2511 15.618C93.2511 15.904 93.2291 16.212 93.1851 16.542C93.1631 16.85 93.1081 17.213 93.0201 17.631L79.1931 17.664V14.199L90.8751 14.166L88.6971 15.618C88.6751 14.694 88.5321 13.935 88.2681 13.341C88.0041 12.725 87.6081 12.263 87.0801 11.955C86.5741 11.625 85.9471 11.46 85.1991 11.46C84.4071 11.46 83.7141 11.647 83.1201 12.021C82.5481 12.373 82.0971 12.879 81.7671 13.539C81.4591 14.199 81.3051 15.002 81.3051 15.948C81.3051 16.894 81.4701 17.708 81.8001 18.39C82.1521 19.05 82.6361 19.567 83.2521 19.941C83.8901 20.293 84.6381 20.469 85.4961 20.469C86.2881 20.469 87.0031 20.337 87.6411 20.073C88.2791 19.787 88.8401 19.369 89.3241 18.819L92.0961 21.591C91.3041 22.515 90.3471 23.208 89.2251 23.67C88.1031 24.132 86.8711 24.363 85.5291 24.363ZM97.6108 24V1.329H102.66V24H97.6108ZM93.9808 12.252V7.962H106.29V12.252H93.9808ZM327.619 24V19.446H333.394C334.802 19.446 336.034 19.171 337.09 18.621C338.146 18.049 338.96 17.224 339.532 16.146C340.104 15.068 340.39 13.792 340.39 12.318C340.39 10.844 340.093 9.579 339.499 8.523C338.927 7.467 338.113 6.653 337.057 6.081C336.023 5.509 334.802 5.223 333.394 5.223H327.454V0.701999H333.46C335.22 0.701999 336.837 0.987999 338.311 1.56C339.807 2.11 341.105 2.913 342.205 3.969C343.327 5.003 344.185 6.235 344.779 7.665C345.395 9.073 345.703 10.635 345.703 12.351C345.703 14.045 345.395 15.607 344.779 17.037C344.185 18.467 343.338 19.699 342.238 20.733C341.138 21.767 339.84 22.57 338.344 23.142C336.87 23.714 335.264 24 333.526 24H327.619ZM324.121 24V0.701999H329.302V24H324.121ZM355.237 24.33C353.763 24.33 352.443 23.967 351.277 23.241C350.133 22.515 349.22 21.525 348.538 20.271C347.878 19.017 347.548 17.587 347.548 15.981C347.548 14.375 347.878 12.945 348.538 11.691C349.22 10.437 350.133 9.447 351.277 8.721C352.443 7.995 353.763 7.632 355.237 7.632C356.315 7.632 357.283 7.841 358.141 8.259C359.021 8.677 359.736 9.26 360.286 10.008C360.836 10.734 361.144 11.57 361.21 12.516V19.446C361.144 20.392 360.836 21.239 360.286 21.987C359.758 22.713 359.054 23.285 358.174 23.703C357.294 24.121 356.315 24.33 355.237 24.33ZM356.26 19.776C357.338 19.776 358.207 19.424 358.867 18.72C359.527 17.994 359.857 17.081 359.857 15.981C359.857 15.233 359.703 14.573 359.395 14.001C359.109 13.429 358.691 12.989 358.141 12.681C357.613 12.351 356.997 12.186 356.293 12.186C355.589 12.186 354.962 12.351 354.412 12.681C353.884 12.989 353.455 13.429 353.125 14.001C352.817 14.573 352.663 15.233 352.663 15.981C352.663 16.707 352.817 17.356 353.125 17.928C353.433 18.5 353.862 18.951 354.412 19.281C354.962 19.611 355.578 19.776 356.26 19.776ZM359.659 24V19.677L360.418 15.783L359.659 11.889V7.962H364.609V24H359.659ZM374.005 24.396C373.059 24.396 372.124 24.275 371.2 24.033C370.298 23.791 369.451 23.45 368.659 23.01C367.889 22.548 367.229 22.02 366.679 21.426L369.55 18.522C370.078 19.094 370.705 19.545 371.431 19.875C372.157 20.183 372.949 20.337 373.807 20.337C374.401 20.337 374.852 20.249 375.16 20.073C375.49 19.897 375.655 19.655 375.655 19.347C375.655 18.951 375.457 18.654 375.061 18.456C374.687 18.236 374.203 18.049 373.609 17.895C373.015 17.719 372.388 17.532 371.728 17.334C371.068 17.136 370.441 16.861 369.847 16.509C369.253 16.157 368.769 15.673 368.395 15.057C368.021 14.419 367.834 13.616 367.834 12.648C367.834 11.614 368.098 10.723 368.626 9.975C369.154 9.205 369.902 8.6 370.87 8.16C371.838 7.72 372.971 7.5 374.269 7.5C375.633 7.5 376.887 7.742 378.031 8.226C379.197 8.688 380.143 9.381 380.869 10.305L377.998 13.209C377.492 12.615 376.92 12.197 376.282 11.955C375.666 11.713 375.061 11.592 374.467 11.592C373.895 11.592 373.466 11.68 373.18 11.856C372.894 12.01 372.751 12.241 372.751 12.549C372.751 12.879 372.938 13.143 373.312 13.341C373.686 13.539 374.17 13.715 374.764 13.869C375.358 14.023 375.985 14.21 376.645 14.43C377.305 14.65 377.932 14.947 378.526 15.321C379.12 15.695 379.604 16.201 379.978 16.839C380.352 17.455 380.539 18.269 380.539 19.281C380.539 20.843 379.945 22.086 378.757 23.01C377.591 23.934 376.007 24.396 374.005 24.396ZM393.871 24V14.859C393.871 14.023 393.607 13.352 393.079 12.846C392.573 12.318 391.924 12.054 391.132 12.054C390.582 12.054 390.098 12.175 389.68 12.417C389.262 12.637 388.932 12.967 388.69 13.407C388.448 13.825 388.327 14.309 388.327 14.859L386.38 13.902C386.38 12.648 386.644 11.548 387.172 10.602C387.7 9.656 388.437 8.93 389.383 8.424C390.329 7.896 391.418 7.632 392.65 7.632C393.904 7.632 395.004 7.896 395.95 8.424C396.896 8.93 397.622 9.645 398.128 10.569C398.656 11.471 398.92 12.527 398.92 13.737V24H393.871ZM383.278 24V0.0419996H388.327V24H383.278ZM411.403 24.33C410.325 24.33 409.335 24.11 408.433 23.67C407.531 23.208 406.794 22.603 406.222 21.855C405.65 21.085 405.32 20.227 405.232 19.281V12.516C405.32 11.57 405.65 10.734 406.222 10.008C406.794 9.26 407.531 8.677 408.433 8.259C409.335 7.841 410.325 7.632 411.403 7.632C412.921 7.632 414.263 7.995 415.429 8.721C416.617 9.447 417.541 10.437 418.201 11.691C418.883 12.945 419.224 14.375 419.224 15.981C419.224 17.587 418.883 19.017 418.201 20.271C417.541 21.525 416.617 22.515 415.429 23.241C414.263 23.967 412.921 24.33 411.403 24.33ZM402.163 24V0.0419996H407.212V11.889L406.387 15.783L407.146 19.677V24H402.163ZM410.512 19.776C411.216 19.776 411.832 19.611 412.36 19.281C412.91 18.951 413.339 18.5 413.647 17.928C413.955 17.356 414.109 16.707 414.109 15.981C414.109 15.233 413.955 14.573 413.647 14.001C413.339 13.429 412.91 12.989 412.36 12.681C411.832 12.351 411.216 12.186 410.512 12.186C409.808 12.186 409.181 12.351 408.631 12.681C408.081 12.989 407.652 13.429 407.344 14.001C407.058 14.573 406.915 15.233 406.915 15.981C406.915 16.729 407.069 17.389 407.377 17.961C407.685 18.533 408.103 18.984 408.631 19.314C409.181 19.622 409.808 19.776 410.512 19.776ZM429.511 24.363C427.861 24.363 426.365 24 425.023 23.274C423.703 22.526 422.658 21.514 421.888 20.238C421.118 18.962 420.733 17.532 420.733 15.948C420.733 14.364 421.118 12.945 421.888 11.691C422.658 10.437 423.703 9.447 425.023 8.721C426.343 7.973 427.839 7.599 429.511 7.599C431.183 7.599 432.679 7.962 433.999 8.688C435.319 9.414 436.364 10.415 437.134 11.691C437.904 12.945 438.289 14.364 438.289 15.948C438.289 17.532 437.904 18.962 437.134 20.238C436.364 21.514 435.319 22.526 433.999 23.274C432.679 24 431.183 24.363 429.511 24.363ZM429.511 19.776C430.237 19.776 430.875 19.622 431.425 19.314C431.975 18.984 432.393 18.533 432.679 17.961C432.987 17.367 433.141 16.696 433.141 15.948C433.141 15.2 432.987 14.551 432.679 14.001C432.371 13.429 431.942 12.989 431.392 12.681C430.864 12.351 430.237 12.186 429.511 12.186C428.807 12.186 428.18 12.351 427.63 12.681C427.08 12.989 426.651 13.429 426.343 14.001C426.035 14.573 425.881 15.233 425.881 15.981C425.881 16.707 426.035 17.367 426.343 17.961C426.651 18.533 427.08 18.984 427.63 19.314C428.18 19.622 428.807 19.776 429.511 19.776ZM447.502 24.33C446.028 24.33 444.708 23.967 443.542 23.241C442.398 22.515 441.485 21.525 440.803 20.271C440.143 19.017 439.813 17.587 439.813 15.981C439.813 14.375 440.143 12.945 440.803 11.691C441.485 10.437 442.398 9.447 443.542 8.721C444.708 7.995 446.028 7.632 447.502 7.632C448.58 7.632 449.548 7.841 450.406 8.259C451.286 8.677 452.001 9.26 452.551 10.008C453.101 10.734 453.409 11.57 453.475 12.516V19.446C453.409 20.392 453.101 21.239 452.551 21.987C452.023 22.713 451.319 23.285 450.439 23.703C449.559 24.121 448.58 24.33 447.502 24.33ZM448.525 19.776C449.603 19.776 450.472 19.424 451.132 18.72C451.792 17.994 452.122 17.081 452.122 15.981C452.122 15.233 451.968 14.573 451.66 14.001C451.374 13.429 450.956 12.989 450.406 12.681C449.878 12.351 449.262 12.186 448.558 12.186C447.854 12.186 447.227 12.351 446.677 12.681C446.149 12.989 445.72 13.429 445.39 14.001C445.082 14.573 444.928 15.233 444.928 15.981C444.928 16.707 445.082 17.356 445.39 17.928C445.698 18.5 446.127 18.951 446.677 19.281C447.227 19.611 447.843 19.776 448.525 19.776ZM451.924 24V19.677L452.683 15.783L451.924 11.889V7.962H456.874V24H451.924ZM460.428 24V7.962H465.477V24H460.428ZM465.477 15.189L463.365 13.539C463.783 11.669 464.487 10.217 465.477 9.183C466.467 8.149 467.842 7.632 469.602 7.632C470.372 7.632 471.043 7.753 471.615 7.995C472.209 8.215 472.726 8.567 473.166 9.051L470.163 12.846C469.943 12.604 469.668 12.417 469.338 12.285C469.008 12.153 468.634 12.087 468.216 12.087C467.38 12.087 466.709 12.351 466.203 12.879C465.719 13.385 465.477 14.155 465.477 15.189ZM480.891 24.33C479.373 24.33 478.02 23.967 476.832 23.241C475.666 22.515 474.742 21.525 474.06 20.271C473.4 19.017 473.07 17.587 473.07 15.981C473.07 14.375 473.4 12.945 474.06 11.691C474.742 10.437 475.666 9.447 476.832 8.721C478.02 7.995 479.373 7.632 480.891 7.632C481.991 7.632 482.981 7.841 483.861 8.259C484.763 8.677 485.5 9.26 486.072 10.008C486.666 10.734 486.996 11.57 487.062 12.516V19.281C486.996 20.227 486.677 21.085 486.105 21.855C485.533 22.603 484.796 23.208 483.894 23.67C482.992 24.11 481.991 24.33 480.891 24.33ZM481.782 19.776C482.508 19.776 483.135 19.622 483.663 19.314C484.191 18.984 484.609 18.533 484.917 17.961C485.225 17.389 485.379 16.729 485.379 15.981C485.379 15.233 485.225 14.584 484.917 14.034C484.631 13.462 484.213 13.011 483.663 12.681C483.135 12.351 482.519 12.186 481.815 12.186C481.111 12.186 480.484 12.351 479.934 12.681C479.406 13.011 478.977 13.462 478.647 14.034C478.339 14.606 478.185 15.255 478.185 15.981C478.185 16.707 478.339 17.356 478.647 17.928C478.955 18.5 479.384 18.951 479.934 19.281C480.484 19.611 481.1 19.776 481.782 19.776ZM490.131 24H485.181V19.677L485.94 15.783L485.082 11.889V0.0419996H490.131V24Z" fill="#227CBF"/>
<path d="M115.261 24V0.701999H118.957L128.131 14.991H126.25L135.391 0.701999H139.12V24H133.939V9.447L134.863 9.678L128.89 18.984H125.458L119.518 9.678L120.409 9.447V24H115.261ZM149.825 24.33C148.351 24.33 147.031 23.967 145.865 23.241C144.721 22.515 143.808 21.525 143.126 20.271C142.466 19.017 142.136 17.587 142.136 15.981C142.136 14.375 142.466 12.945 143.126 11.691C143.808 10.437 144.721 9.447 145.865 8.721C147.031 7.995 148.351 7.632 149.825 7.632C150.903 7.632 151.871 7.841 152.729 8.259C153.609 8.677 154.324 9.26 154.874 10.008C155.424 10.734 155.732 11.57 155.798 12.516V19.446C155.732 20.392 155.424 21.239 154.874 21.987C154.346 22.713 153.642 23.285 152.762 23.703C151.882 24.121 150.903 24.33 149.825 24.33ZM150.848 19.776C151.926 19.776 152.795 19.424 153.455 18.72C154.115 17.994 154.445 17.081 154.445 15.981C154.445 15.233 154.291 14.573 153.983 14.001C153.697 13.429 153.279 12.989 152.729 12.681C152.201 12.351 151.585 12.186 150.881 12.186C150.177 12.186 149.55 12.351 149 12.681C148.472 12.989 148.043 13.429 147.713 14.001C147.405 14.573 147.251 15.233 147.251 15.981C147.251 16.707 147.405 17.356 147.713 17.928C148.021 18.5 148.45 18.951 149 19.281C149.55 19.611 150.166 19.776 150.848 19.776ZM154.247 24V19.677L155.006 15.783L154.247 11.889V7.962H159.197V24H154.247ZM173.345 24V14.859C173.345 14.023 173.081 13.352 172.553 12.846C172.047 12.318 171.398 12.054 170.606 12.054C170.056 12.054 169.572 12.175 169.154 12.417C168.736 12.637 168.406 12.967 168.164 13.407C167.922 13.825 167.801 14.309 167.801 14.859L165.854 13.902C165.854 12.648 166.129 11.548 166.679 10.602C167.229 9.656 167.988 8.93 168.956 8.424C169.946 7.896 171.057 7.632 172.289 7.632C173.477 7.632 174.522 7.918 175.424 8.49C176.348 9.04 177.074 9.777 177.602 10.701C178.13 11.625 178.394 12.637 178.394 13.737V24H173.345ZM162.752 24V7.962H167.801V24H162.752ZM188.335 24.33C186.861 24.33 185.541 23.967 184.375 23.241C183.231 22.515 182.318 21.525 181.636 20.271C180.976 19.017 180.646 17.587 180.646 15.981C180.646 14.375 180.976 12.945 181.636 11.691C182.318 10.437 183.231 9.447 184.375 8.721C185.541 7.995 186.861 7.632 188.335 7.632C189.413 7.632 190.381 7.841 191.239 8.259C192.119 8.677 192.834 9.26 193.384 10.008C193.934 10.734 194.242 11.57 194.308 12.516V19.446C194.242 20.392 193.934 21.239 193.384 21.987C192.856 22.713 192.152 23.285 191.272 23.703C190.392 24.121 189.413 24.33 188.335 24.33ZM189.358 19.776C190.436 19.776 191.305 19.424 191.965 18.72C192.625 17.994 192.955 17.081 192.955 15.981C192.955 15.233 192.801 14.573 192.493 14.001C192.207 13.429 191.789 12.989 191.239 12.681C190.711 12.351 190.095 12.186 189.391 12.186C188.687 12.186 188.06 12.351 187.51 12.681C186.982 12.989 186.553 13.429 186.223 14.001C185.915 14.573 185.761 15.233 185.761 15.981C185.761 16.707 185.915 17.356 186.223 17.928C186.531 18.5 186.96 18.951 187.51 19.281C188.06 19.611 188.676 19.776 189.358 19.776ZM192.757 24V19.677L193.516 15.783L192.757 11.889V7.962H197.707V24H192.757ZM208.06 31.194C206.3 31.194 204.749 30.886 203.407 30.27C202.087 29.676 201.042 28.829 200.272 27.729L203.374 24.627C203.946 25.309 204.584 25.826 205.288 26.178C206.014 26.53 206.883 26.706 207.895 26.706C209.149 26.706 210.128 26.398 210.832 25.782C211.558 25.166 211.921 24.297 211.921 23.175V19.083L212.779 15.585L212.02 12.087V7.962H216.97V23.043C216.97 24.693 216.585 26.123 215.815 27.333C215.045 28.543 213.989 29.489 212.647 30.171C211.305 30.853 209.776 31.194 208.06 31.194ZM207.829 23.505C206.355 23.505 205.046 23.153 203.902 22.449C202.758 21.745 201.856 20.788 201.196 19.578C200.536 18.368 200.206 17.026 200.206 15.552C200.206 14.056 200.536 12.714 201.196 11.526C201.856 10.316 202.758 9.37 203.902 8.688C205.046 7.984 206.355 7.632 207.829 7.632C208.929 7.632 209.908 7.841 210.766 8.259C211.646 8.655 212.35 9.227 212.878 9.975C213.428 10.701 213.736 11.548 213.802 12.516V18.621C213.736 19.567 213.428 20.414 212.878 21.162C212.35 21.888 211.646 22.46 210.766 22.878C209.886 23.296 208.907 23.505 207.829 23.505ZM208.786 19.017C209.49 19.017 210.095 18.863 210.601 18.555C211.129 18.247 211.525 17.84 211.789 17.334C212.075 16.806 212.218 16.212 212.218 15.552C212.218 14.892 212.075 14.298 211.789 13.77C211.525 13.242 211.129 12.824 210.601 12.516C210.095 12.208 209.49 12.054 208.786 12.054C208.104 12.054 207.499 12.208 206.971 12.516C206.443 12.824 206.036 13.242 205.75 13.77C205.464 14.298 205.321 14.892 205.321 15.552C205.321 16.168 205.464 16.751 205.75 17.301C206.036 17.829 206.432 18.247 206.938 18.555C207.466 18.863 208.082 19.017 208.786 19.017ZM228.454 24.363C226.716 24.363 225.165 24.011 223.801 23.307C222.459 22.581 221.403 21.58 220.633 20.304C219.863 19.028 219.478 17.587 219.478 15.981C219.478 14.375 219.852 12.945 220.6 11.691C221.37 10.415 222.404 9.414 223.702 8.688C225 7.962 226.463 7.599 228.091 7.599C229.675 7.599 231.072 7.94 232.282 8.622C233.492 9.304 234.438 10.25 235.12 11.46C235.824 12.67 236.176 14.056 236.176 15.618C236.176 15.904 236.154 16.212 236.11 16.542C236.088 16.85 236.033 17.213 235.945 17.631L222.118 17.664V14.199L233.8 14.166L231.622 15.618C231.6 14.694 231.457 13.935 231.193 13.341C230.929 12.725 230.533 12.263 230.005 11.955C229.499 11.625 228.872 11.46 228.124 11.46C227.332 11.46 226.639 11.647 226.045 12.021C225.473 12.373 225.022 12.879 224.692 13.539C224.384 14.199 224.23 15.002 224.23 15.948C224.23 16.894 224.395 17.708 224.725 18.39C225.077 19.05 225.561 19.567 226.177 19.941C226.815 20.293 227.563 20.469 228.421 20.469C229.213 20.469 229.928 20.337 230.566 20.073C231.204 19.787 231.765 19.369 232.249 18.819L235.021 21.591C234.229 22.515 233.272 23.208 232.15 23.67C231.028 24.132 229.796 24.363 228.454 24.363ZM238.613 24V7.962H243.662V24H238.613ZM248.876 24V14.628C248.876 13.814 248.623 13.187 248.117 12.747C247.633 12.285 247.028 12.054 246.302 12.054C245.796 12.054 245.345 12.164 244.949 12.384C244.553 12.582 244.234 12.868 243.992 13.242C243.772 13.616 243.662 14.078 243.662 14.628L241.715 13.77C241.715 12.494 241.99 11.405 242.54 10.503C243.09 9.579 243.838 8.875 244.784 8.391C245.73 7.885 246.797 7.632 247.985 7.632C249.107 7.632 250.108 7.885 250.988 8.391C251.89 8.897 252.605 9.601 253.133 10.503C253.661 11.405 253.925 12.483 253.925 13.737V24H248.876ZM259.139 24V14.628C259.139 13.814 258.886 13.187 258.38 12.747C257.896 12.285 257.291 12.054 256.565 12.054C256.059 12.054 255.608 12.164 255.212 12.384C254.816 12.582 254.497 12.868 254.255 13.242C254.035 13.616 253.925 14.078 253.925 14.628L251.021 14.232C251.065 12.868 251.384 11.702 251.978 10.734C252.594 9.744 253.397 8.985 254.387 8.457C255.399 7.907 256.532 7.632 257.786 7.632C259.018 7.632 260.107 7.896 261.053 8.424C262.021 8.93 262.78 9.667 263.33 10.635C263.902 11.581 264.188 12.725 264.188 14.067V24H259.139ZM275.344 24.363C273.606 24.363 272.055 24.011 270.691 23.307C269.349 22.581 268.293 21.58 267.523 20.304C266.753 19.028 266.368 17.587 266.368 15.981C266.368 14.375 266.742 12.945 267.49 11.691C268.26 10.415 269.294 9.414 270.592 8.688C271.89 7.962 273.353 7.599 274.981 7.599C276.565 7.599 277.962 7.94 279.172 8.622C280.382 9.304 281.328 10.25 282.01 11.46C282.714 12.67 283.066 14.056 283.066 15.618C283.066 15.904 283.044 16.212 283 16.542C282.978 16.85 282.923 17.213 282.835 17.631L269.008 17.664V14.199L280.69 14.166L278.512 15.618C278.49 14.694 278.347 13.935 278.083 13.341C277.819 12.725 277.423 12.263 276.895 11.955C276.389 11.625 275.762 11.46 275.014 11.46C274.222 11.46 273.529 11.647 272.935 12.021C272.363 12.373 271.912 12.879 271.582 13.539C271.274 14.199 271.12 15.002 271.12 15.948C271.12 16.894 271.285 17.708 271.615 18.39C271.967 19.05 272.451 19.567 273.067 19.941C273.705 20.293 274.453 20.469 275.311 20.469C276.103 20.469 276.818 20.337 277.456 20.073C278.094 19.787 278.655 19.369 279.139 18.819L281.911 21.591C281.119 22.515 280.162 23.208 279.04 23.67C277.918 24.132 276.686 24.363 275.344 24.363ZM296.096 24V14.859C296.096 14.023 295.832 13.352 295.304 12.846C294.798 12.318 294.149 12.054 293.357 12.054C292.807 12.054 292.323 12.175 291.905 12.417C291.487 12.637 291.157 12.967 290.915 13.407C290.673 13.825 290.552 14.309 290.552 14.859L288.605 13.902C288.605 12.648 288.88 11.548 289.43 10.602C289.98 9.656 290.739 8.93 291.707 8.424C292.697 7.896 293.808 7.632 295.04 7.632C296.228 7.632 297.273 7.918 298.175 8.49C299.099 9.04 299.825 9.777 300.353 10.701C300.881 11.625 301.145 12.637 301.145 13.737V24H296.096ZM285.503 24V7.962H290.552V24H285.503ZM306.471 24V1.329H311.52V24H306.471ZM302.841 12.252V7.962H315.15V12.252H302.841Z" fill="#47B65C"/>
</svg>
