<svg width="20" height="20" viewBox="0 0 20 20" fill="none" xmlns="http://www.w3.org/2000/svg">
<path d="M18.3334 14.1667C18.3334 14.6087 18.1578 15.0326 17.8453 15.3452C17.5327 15.6577 17.1088 15.8333 16.6667 15.8333H5.69008C5.24809 15.8334 4.82424 16.0091 4.51175 16.3217L2.67675 18.1567C2.594 18.2394 2.48858 18.2957 2.37382 18.3186C2.25906 18.3414 2.14011 18.3297 2.032 18.2849C1.9239 18.2401 1.8315 18.1643 1.76649 18.067C1.70147 17.9697 1.66676 17.8553 1.66675 17.7383V4.16667C1.66675 3.72464 1.84234 3.30072 2.1549 2.98816C2.46746 2.67559 2.89139 2.5 3.33341 2.5H16.6667C17.1088 2.5 17.5327 2.67559 17.8453 2.98816C18.1578 3.30072 18.3334 3.72464 18.3334 4.16667V14.1667Z" stroke="#333333" stroke-width="1.5" stroke-linecap="round" stroke-linejoin="round"/>
</svg>
