<svg width="20" height="20" viewBox="0 0 20 20" fill="none" xmlns="http://www.w3.org/2000/svg">
<path d="M12.5002 1.66699H5.00016C4.55814 1.66699 4.13421 1.84259 3.82165 2.15515C3.50909 2.46771 3.3335 2.89163 3.3335 3.33366V16.667C3.3335 17.109 3.50909 17.5329 3.82165 17.8455C4.13421 18.1581 4.55814 18.3337 5.00016 18.3337H15.0002C15.4422 18.3337 15.8661 18.1581 16.1787 17.8455C16.4912 17.5329 16.6668 17.109 16.6668 16.667V5.83366L12.5002 1.66699Z" stroke="#333333" stroke-width="1.5" stroke-linecap="round" stroke-linejoin="round"/>
<path d="M11.6665 1.66699V5.00033C11.6665 5.44235 11.8421 5.86628 12.1547 6.17884C12.4672 6.4914 12.8911 6.66699 13.3332 6.66699H16.6665" stroke="#333333" stroke-width="1.5" stroke-linecap="round" stroke-linejoin="round"/>
<path d="M10 15V10" stroke="#333333" stroke-width="1.5" stroke-linecap="round" stroke-linejoin="round"/>
<path d="M7.5 12.5L10 15L12.5 12.5" stroke="#333333" stroke-width="1.5" stroke-linecap="round" stroke-linejoin="round"/>
</svg>
