<svg width="26" height="26" viewBox="0 0 26 26" fill="none" xmlns="http://www.w3.org/2000/svg">
<g clip-path="url(#clip0_6117_10631)">
<path d="M25.8314 13.0001C25.8314 5.88434 20.063 0.115883 12.9472 0.115883C5.83144 0.115883 0.0629883 5.88434 0.0629883 13.0001C0.0629883 19.431 4.77456 24.7612 10.934 25.7278V16.7244H7.66266V13.0001H10.934V10.1615C10.934 6.93244 12.8576 5.14878 15.8006 5.14878C17.2102 5.14878 18.6847 5.40042 18.6847 5.40042V8.57115H17.06C15.4595 8.57115 14.9604 9.56431 14.9604 10.5832V13.0001H18.5337L17.9625 16.7244H14.9604V25.7278C21.1198 24.7612 25.8314 19.431 25.8314 13.0001Z" fill="white"/>
<path d="M17.9624 16.7244L18.5337 13.0001H14.9603V10.5832C14.9603 9.56428 15.4594 8.57112 17.06 8.57112H18.6846V5.40039C18.6846 5.40039 17.2102 5.14875 15.8005 5.14875C12.8575 5.14875 10.934 6.93241 10.934 10.1615V13.0001H7.6626V16.7244H10.934V25.7278C11.5899 25.8307 12.2623 25.8843 12.9471 25.8843C13.632 25.8843 14.3043 25.8307 14.9603 25.7278V16.7244H17.9624Z" fill="#227CBF"/>
</g>
<defs>
<clipPath id="clip0_6117_10631">
<rect width="25.7684" height="25.7684" fill="white" transform="translate(0.0629883 0.115723)"/>
</clipPath>
</defs>
</svg>
