<svg width="269" height="80" viewBox="0 0 269 80" fill="none" xmlns="http://www.w3.org/2000/svg">
<path d="M12.0386 3.69238H18.3463V38.0001H12.0386V3.69238Z" fill="#227CBF"/>
<path d="M26.0386 12.3078H31.7309V14.6155C32.5001 13.5386 33.577 12.7694 34.8078 12.154C36.0386 11.5386 37.4232 11.3848 38.8078 11.3848C40.1924 11.3848 41.4232 11.6925 42.8078 12.154C44.0386 12.7694 45.2693 13.5386 46.1924 14.4617L46.8078 15.2309C47.7309 16.4617 48.3463 17.8463 48.5001 19.2309C48.8078 20.6155 48.8078 22.4617 48.8078 24.4617V37.6925H42.654V25.5386C42.654 24.0002 42.654 22.6155 42.5001 21.8463C42.3463 20.9232 42.0386 20.154 41.577 19.3848C41.1155 18.6155 40.5001 18.154 39.7309 17.6925C38.9617 17.3848 38.1924 17.0771 37.4232 17.0771C36.5001 17.0771 35.7309 17.2309 34.9616 17.6925C34.1924 18.154 33.577 18.6155 33.2693 19.2309C32.9617 19.8463 32.654 20.6155 32.5001 21.3848C32.3463 22.3078 32.1924 23.5386 32.1924 25.0771V25.8463V37.5386H26.0386V12.3078Z" fill="#227CBF"/>
<path d="M55.5772 17.8459H53.4233V12.3075H55.5772C55.5772 9.69208 56.3464 7.53824 57.8849 5.69208C59.4233 3.84593 61.4233 2.92285 64.0387 2.92285H65.731V9.0767C64.1926 9.0767 63.2695 9.23054 62.6541 9.53824C62.0387 9.84593 61.8849 10.769 61.8849 12.1536H65.4233V17.6921H61.8849V37.8459H55.731V17.8459H55.5772Z" fill="#227CBF"/>
<path d="M70.0386 12.3078H75.7309V14.6155C76.5001 13.5386 77.2693 12.7694 78.1924 12.154C79.1155 11.6925 80.1924 11.3848 81.4232 11.3848H81.8847V17.3848C80.5001 17.3848 79.2693 17.6925 78.3463 18.4617C77.4232 19.2309 76.8078 20.0001 76.654 20.7694C76.5001 21.5386 76.3463 22.7694 76.3463 24.0002V37.8463H70.1924V12.3078H70.0386Z" fill="#227CBF"/>
<path d="M112.5 37.9996H106.808V34.4612C105.885 35.8458 104.5 36.7689 102.962 37.5381C101.27 38.3073 99.7311 38.615 98.0388 38.615C96.0388 38.615 94.3465 38.3073 92.6541 37.5381C91.1157 36.7689 89.4234 35.3842 87.7311 33.5381C86.0388 31.5381 85.2695 28.7689 85.2695 25.0765C85.2695 23.2304 85.5772 21.5381 86.0388 20.1535C86.5003 18.615 87.7311 16.9227 89.5772 14.7689C91.4234 12.615 94.3465 11.5381 98.0388 11.5381C101.731 11.5381 104.5 13.0765 106.654 15.9996V12.3073H112.346V37.9996H112.5ZM99.2695 17.5381C96.9618 17.5381 95.1157 18.3073 93.7311 19.6919C92.3465 21.2304 91.5772 23.0765 91.5772 25.3842C91.5772 27.5381 92.3465 29.2304 93.7311 30.615C95.2695 31.9996 96.9618 32.7689 99.1157 32.7689C101.27 32.7689 103.116 31.9996 104.5 30.615C105.885 29.2304 106.654 27.3842 106.654 25.0765C106.654 22.9227 106.039 21.0765 104.654 19.6919C103.27 18.3073 101.423 17.5381 99.2695 17.5381Z" fill="#227CBF"/>
<path d="M151.269 28.6156C150.039 31.6925 147.885 34.1541 144.962 36.0002C142.039 37.8464 138.808 38.7695 135.423 38.7695C130.5 38.7695 126.346 36.9233 122.808 33.3848C119.269 29.8464 117.577 25.6925 117.577 20.7695C117.577 15.8464 119.269 11.6925 122.808 8.30792C126.346 4.76946 130.346 3.07715 135.269 3.07715C138.808 3.07715 142.039 4.00023 145.116 5.84638C148.193 7.69253 150.346 10.3079 151.577 13.5387H144.346C143.269 12.1541 141.885 11.231 140.346 10.4618C138.808 9.69253 137.116 9.38484 135.423 9.38484C132.346 9.38484 129.577 10.6156 127.423 12.9233C125.269 15.231 124.193 18.0002 124.193 21.231C124.193 24.3079 125.269 26.9233 127.577 29.3848C129.885 31.6925 132.5 32.9233 135.577 32.9233C137.269 32.9233 138.808 32.6156 140.193 31.8464C141.577 31.231 142.962 30.1541 144.193 28.9233H151.269V28.6156Z" fill="#47B65C"/>
<path d="M156.5 12.3078H162.192V14.6155C162.962 13.5386 163.731 12.7694 164.654 12.154C165.577 11.6925 166.654 11.3848 167.885 11.3848H168.346V17.3848C166.962 17.3848 165.731 17.6925 164.808 18.4617C163.885 19.2309 163.269 20.0001 163.115 20.7694C162.962 21.5386 162.808 22.7694 162.808 24.0002V37.8463H156.654V12.3078H156.5Z" fill="#47B65C"/>
<path d="M178.346 28.0001C178.808 29.5385 179.731 30.6155 180.962 31.5385C182.192 32.4616 183.577 32.9231 185.116 32.9231C187.577 32.9231 189.577 32.1539 190.808 30.7693H197.577C196.808 33.077 195.116 34.9231 192.808 36.6155C190.5 38.1539 187.885 39.077 185.269 39.077C181.577 39.077 178.346 37.6924 175.731 35.077C173.116 32.4616 171.731 29.2308 171.731 25.5385C171.731 21.6924 173.116 18.4616 175.731 15.6924C178.346 12.9232 181.577 11.6924 185.423 11.6924C189.116 11.6924 192.192 13.077 194.808 15.6924C197.423 18.3078 198.654 21.5385 198.654 25.2308C198.654 25.6924 198.654 26.1539 198.5 26.7693C198.346 27.3847 198.346 27.8462 198.346 28.1539H178.346V28.0001ZM192.5 22.4616C192.039 20.9232 191.116 19.8462 189.885 18.9232C188.654 18.0001 187.116 17.5385 185.577 17.5385C184.039 17.5385 182.5 18.0001 181.116 18.9232C179.731 19.8462 178.808 21.077 178.346 22.4616H192.5Z" fill="#47B65C"/>
<path d="M230.193 38.0001H224.5V34.4616C223.577 35.8462 222.346 36.9232 220.808 37.5385C219.27 38.3078 217.577 38.6155 215.885 38.6155C214.039 38.6155 212.346 38.3078 210.808 37.5385C209.27 36.7693 207.885 35.6924 206.808 34.4616C205.731 33.077 204.808 31.6924 204.193 30.1539C203.577 28.6155 203.27 26.9232 203.27 25.2308C203.27 21.5385 204.193 18.7693 205.885 16.7693C207.577 14.7693 209.423 13.3847 211.116 12.6155C212.808 11.8462 214.5 11.3847 216.346 11.3847C217.885 11.3847 219.423 11.6924 220.808 12.3078C222.193 12.9232 223.423 13.6924 224.346 14.9232V3.69238H230.5V38.0001H230.193ZM216.808 17.5385C214.808 17.5385 213.116 18.3078 211.577 19.6924C210.039 21.2308 209.27 22.9232 209.27 24.9232C209.27 27.077 210.039 28.9232 211.423 30.4616C212.808 32.0001 214.654 32.7693 216.808 32.7693C218.962 32.7693 220.808 32.0001 222.193 30.4616C223.731 28.9232 224.5 27.077 224.5 25.077C224.5 22.9232 223.731 21.2308 222.193 19.6924C220.808 18.3078 218.962 17.5385 216.808 17.5385Z" fill="#47B65C"/>
<path d="M236.5 3.69238H242.654V9.38469H236.5V3.69238ZM236.5 12.3078H242.654V38.0001H236.5V12.3078Z" fill="#47B65C"/>
<path d="M250.193 17.8462H247.116V12.3078H250.193V3.69238H256.346V12.3078H260.039V17.8462H256.346V38.0001H250.193V17.8462Z" fill="#47B65C"/>
<path d="M61.2694 72.4616C59.2694 71.5385 57.4233 70.3078 55.5771 69.2308C53.731 68.0001 52.0386 66.6155 50.3463 65.2308C48.654 63.8462 47.1156 62.3078 45.5771 60.6155C44.8079 59.8462 44.1925 58.9232 43.4233 58.1539C43.2694 58.0001 43.1156 57.6924 42.9617 57.5385C42.8079 57.3847 42.654 57.077 42.5002 56.9232C42.1925 56.6155 41.8848 56.3078 41.731 56.0001C40.654 54.7693 39.5771 53.5385 38.654 52.1539C37.5771 50.6155 36.8079 49.2308 36.0387 47.6924C35.731 47.077 35.4233 46.3078 35.1156 45.6924H11.731C12.0386 46.4616 12.3463 47.077 12.654 47.8462C13.5771 49.8462 14.654 51.6924 15.8848 53.6924C17.1156 55.5385 18.3463 57.3847 19.8848 58.9232C21.2694 60.6155 22.8079 62.1539 24.5002 63.6924C26.0386 65.2308 27.731 66.6155 29.5771 67.8462C31.2694 69.077 33.1156 70.3078 35.1156 71.3847C36.9617 72.4616 38.9617 73.3847 40.9617 74.3078C42.9617 75.077 45.1156 75.8462 47.1156 76.4616C49.2694 77.077 51.4233 77.5385 53.5771 77.8462C54.5002 78.0001 55.4233 78.1539 56.3463 78.1539C56.9617 78.1539 57.731 78.3078 58.3463 78.3078C58.9617 78.3078 59.731 78.3078 60.3463 78.4616C60.654 78.4616 61.1156 78.4616 61.4233 78.4616C61.731 78.4616 62.0387 78.4616 62.1925 78.4616C62.8079 78.4616 63.4233 78.4616 64.0387 78.4616C64.8079 78.4616 65.4233 78.4616 66.1925 78.3078C67.1156 78.3078 67.8848 78.1539 68.8079 78.0001C70.3463 77.8462 71.8848 77.5385 73.4233 77.077C71.2694 76.6155 69.1156 76.0001 67.1156 75.2308C65.2694 74.3078 63.2694 73.3847 61.2694 72.4616Z" fill="#47B65C"/>
<path opacity="0.12" d="M24.5002 63.6922C26.0386 65.2307 27.731 66.6153 29.5771 67.8461C31.2694 69.0768 33.1156 70.3076 35.1156 71.3845C36.9617 72.4615 38.9617 73.3845 40.9617 74.3076C42.9617 75.0768 45.1156 75.8461 47.1156 76.4615C49.2694 77.0769 51.4233 77.5384 53.5771 77.8461C54.5002 77.9999 55.4233 78.1538 56.3463 78.1538C56.9617 78.1538 57.731 78.3076 58.3463 78.3076C58.9617 78.3076 59.731 78.3076 60.3463 78.4615C60.654 78.4615 61.1156 78.4615 61.4233 78.4615C61.731 78.4615 62.0387 78.4615 62.1925 78.4615C62.8079 78.4615 63.4233 78.4615 64.0387 78.4615C64.8079 78.4615 65.4233 78.4615 66.1925 78.3076C67.1156 78.3076 67.8848 78.1538 68.8079 77.9999C70.3463 77.8461 71.8848 77.5384 73.4233 77.0768C71.2694 76.6153 69.1156 75.9999 67.1156 75.2307C65.1156 74.4615 63.1156 73.6922 61.1156 72.6153C59.1156 71.6922 57.2694 70.4615 55.4233 69.3845C53.5771 68.1538 51.8848 66.7692 50.1925 65.3845C48.5002 63.9999 46.9617 62.4615 45.4233 60.7692C44.654 59.9999 44.0387 59.0769 43.2694 58.3076C43.1156 58.1538 42.9617 57.8461 42.8079 57.6922C42.654 57.5384 42.5002 57.2307 42.3463 57.0768C42.0387 56.7692 41.8848 56.6153 41.5771 56.3076C34.5002 57.3845 27.8848 59.0768 21.731 61.2307C22.654 61.8461 23.5771 62.7692 24.5002 63.6922Z" fill="white"/>
<path d="M88.8081 45.6924C88.1927 47.077 87.5773 48.3078 86.8081 49.5385C86.0389 50.9232 85.1158 52.3078 84.0389 53.5385C83.1158 54.7693 82.0389 55.8462 80.962 56.9232C79.7312 58.0001 78.5004 59.077 77.1158 60.0001C75.4235 61.2308 73.5773 62.1539 71.5773 62.9232C69.5773 63.6924 67.5773 64.1539 65.5773 64.3078C63.4235 64.4616 61.4235 64.4616 59.2696 64.1539C57.2696 63.8462 55.2696 63.2308 53.4235 62.3078C51.5773 61.5385 49.885 60.4616 48.3466 59.3847C47.1158 58.4616 45.885 57.3847 44.8081 56.3078C46.0389 58.0001 47.5773 59.6924 48.962 61.077C50.5004 62.6155 52.0389 64.0001 53.7312 65.3847C55.4235 66.7693 57.1158 68.0001 58.962 69.077C60.8081 70.1539 62.6543 71.2308 64.5004 72.1539C66.5004 73.077 68.3466 73.8462 70.5004 74.4616C71.5773 74.7693 72.5004 75.077 73.5773 75.3847C73.885 75.3847 74.0389 75.5385 74.3466 75.5385C74.5004 75.5385 74.6543 75.5385 74.6543 75.6924H74.8081H74.962C75.4235 75.5385 76.0389 75.3847 76.5004 75.2308C78.5004 74.6155 80.5004 74.0001 82.5004 73.2308C84.3466 72.4616 86.1927 71.5385 88.0389 70.6155C89.7312 69.6924 91.5773 68.6155 93.1158 67.3847C94.8081 66.1539 96.3466 64.9232 97.885 63.6924C99.2696 62.4616 100.654 61.077 101.885 59.6924C103.116 58.4616 104.193 57.077 105.116 55.6924C106.193 54.3078 107.116 52.7693 108.039 51.3847C108.962 49.8462 109.731 48.3078 110.5 46.7693C110.654 46.4616 110.808 46.1539 110.962 45.8462H88.8081V45.6924Z" fill="#227CBF"/>
<path opacity="0.12" d="M49.1158 61.0764C50.6543 62.6149 52.1927 63.9995 53.885 65.3841C55.5773 66.7687 57.2696 67.9995 59.1158 69.0764C60.962 70.1533 62.8081 71.2302 64.6543 72.1533C66.6543 73.0764 68.5004 73.8456 70.6543 74.461C71.7312 74.7687 72.6543 75.0764 73.7312 75.3841C74.0389 75.3841 74.1927 75.5379 74.5004 75.5379C74.6543 75.5379 74.8081 75.5379 74.8081 75.6918H74.962H75.1158C75.5773 75.5379 76.1927 75.3841 76.6543 75.2302C78.6543 74.6149 80.6543 73.9995 82.6543 73.2302C84.5004 72.461 86.3466 71.5379 88.1927 70.6149C89.885 69.6918 91.7312 68.6149 93.2696 67.3841C94.962 66.1533 96.5004 64.9226 98.0389 63.6918C98.9619 62.7687 100.039 61.8456 100.962 60.9225C94.9619 58.9225 88.5004 57.2302 81.7312 56.1533C81.4235 56.461 81.2696 56.6149 80.962 56.9226C79.7312 57.9995 78.5004 59.0764 77.1158 59.9995C75.4235 61.2302 73.5773 62.1533 71.5773 62.9226C69.5773 63.6918 67.5773 64.1533 65.5773 64.3072C63.4235 64.461 61.4235 64.461 59.2696 64.1533C57.2696 63.8456 55.2696 63.2302 53.4235 62.3072C51.5773 61.5379 49.885 60.461 48.3466 59.3841C47.1158 58.461 45.885 57.3841 44.8081 56.3072C46.3466 57.8456 47.7312 59.5379 49.1158 61.0764Z" fill="white"/>
<path d="M125.577 49.6922C124.654 49.3845 124.192 48.7691 124.192 48.1537C124.192 47.2306 124.962 46.6152 126.192 46.6152C126.654 46.6152 127.116 46.7691 127.577 46.7691L128.039 46.9229C128.039 46.9229 128.039 46.9229 128.039 47.0768L127.885 47.3845C127.885 47.3845 127.885 47.3845 127.731 47.3845L127.269 47.2306C126.808 47.0768 126.5 47.0768 126.039 47.0768C125.269 47.0768 124.654 47.5383 124.654 48.1537C124.654 48.6152 124.808 48.9229 125.577 49.2306L126.808 49.6922C127.577 49.9998 128.192 50.4614 128.192 51.2306C128.192 52.3075 127.269 52.9229 126.039 52.9229C125.423 52.9229 124.808 52.7691 124.346 52.6152L124.039 52.4614C124.039 52.4614 124.039 52.4614 124.039 52.3075L124.192 51.9998C124.192 51.9998 124.192 51.9998 124.346 51.9998L124.654 52.1537C125.115 52.3075 125.577 52.4614 126.192 52.4614C126.962 52.4614 127.731 51.9999 127.731 51.3845C127.731 50.9229 127.269 50.6152 126.808 50.3075L125.577 49.6922Z" fill="#227CBF"/>
<path d="M132.654 52.7692C132.346 52.923 132.039 52.923 131.731 52.923C130.5 52.923 129.731 51.9999 129.731 50.6153C129.731 49.2307 130.5 48.3076 131.731 48.3076C132.808 48.3076 133.423 48.7692 133.423 49.6922C133.423 50.3076 132.962 50.6153 132.192 50.7692L130.5 51.0768C130.654 51.8461 131.116 52.3076 131.885 52.3076C132.192 52.3076 132.5 52.3076 132.654 52.1538L132.962 51.9999H133.116L133.269 52.3076V52.4615L132.654 52.7692ZM132.039 50.4615C132.5 50.3076 132.808 50.1538 132.808 49.8461C132.808 49.3845 132.346 49.0768 131.731 49.0768C130.962 49.0768 130.346 49.6922 130.346 50.7692L132.039 50.4615Z" fill="#227CBF"/>
<path d="M137.577 52.7692C137.269 52.923 136.962 52.923 136.654 52.923C135.269 52.923 134.654 51.9999 134.654 50.6153C134.654 49.2307 135.423 48.3076 136.654 48.3076C136.962 48.3076 137.115 48.3076 137.423 48.4615L137.731 48.6153C137.731 48.6153 137.731 48.6153 137.731 48.7692L137.577 49.0768C137.577 49.0768 137.577 49.0768 137.423 49.0768H137.115C136.808 48.923 136.654 48.923 136.5 48.923C135.577 48.923 134.962 49.5384 134.962 50.6153C134.962 51.6922 135.423 52.3076 136.346 52.3076C136.5 52.3076 136.808 52.3076 137.115 52.1538H137.423H137.577L137.731 52.4615V52.6153L137.577 52.7692Z" fill="#227CBF"/>
<path d="M142.654 52.1538C142.193 52.6153 141.731 52.923 141.116 52.923C140.193 52.923 139.577 52.3076 139.577 51.2307V48.6153C139.577 48.6153 139.577 48.4615 139.731 48.4615H140.193C140.193 48.4615 140.346 48.4615 140.346 48.6153V51.0768C140.346 51.8461 140.808 52.3076 141.423 52.3076C142.346 52.3076 142.808 51.6922 142.808 50.4615V48.4615C142.808 48.4615 142.808 48.3076 142.962 48.3076H143.423C143.423 48.3076 143.577 48.3076 143.577 48.4615V52.6153C143.577 52.6153 143.577 52.7692 143.423 52.7692H143.116C143.116 52.7692 142.962 52.7692 142.962 52.6153L142.654 52.1538Z" fill="#227CBF"/>
<path d="M147.115 48.923C146.038 49.0768 145.577 49.8461 145.577 51.3845V52.7692C145.577 52.7692 145.577 52.923 145.423 52.923H144.961C144.961 52.923 144.808 52.923 144.808 52.7692V48.6153C144.808 48.6153 144.808 48.4615 144.961 48.4615H145.269C145.269 48.4615 145.423 48.4615 145.423 48.6153V49.2307C145.423 49.2307 145.423 49.3845 145.577 49.2307C145.885 48.7692 146.346 48.4615 147.115 48.3076C147.115 48.3076 147.269 48.3076 147.269 48.4615V48.923H147.115Z" fill="#227CBF"/>
<path d="M149.731 52.7692L149.269 52.923C149.269 52.923 149.115 52.923 149.115 52.7692V49.0768H148.654C148.654 49.0768 148.5 49.0768 148.5 48.923V48.6153C148.5 48.6153 148.5 48.4615 148.654 48.4615H149.577C149.577 48.4615 149.731 48.4615 149.731 48.6153V52.7692ZM149.731 46.7692C149.731 47.0768 149.577 47.2307 149.269 47.2307C148.962 47.2307 148.808 47.0768 148.808 46.7692C148.808 46.4615 148.962 46.3076 149.269 46.3076C149.577 46.3076 149.731 46.6153 149.731 46.7692Z" fill="#227CBF"/>
<path d="M152.039 49.2311C152.5 48.7696 152.962 48.4619 153.577 48.4619C154.5 48.4619 155.116 49.0773 155.116 50.1542V52.7696C155.116 52.7696 155.116 52.9235 154.962 52.9235H154.5C154.5 52.9235 154.346 52.9235 154.346 52.7696V50.3081C154.346 49.5388 153.885 49.0773 153.27 49.0773C152.346 49.0773 151.885 49.6927 151.885 50.9235V52.9235C151.885 52.9235 151.885 53.0773 151.731 53.0773H151.27C151.27 53.0773 151.116 53.0773 151.116 52.9235V48.7696C151.116 48.7696 151.116 48.6158 151.27 48.6158H151.577C151.577 48.6158 151.731 48.6158 151.731 48.7696L152.039 49.2311Z" fill="#227CBF"/>
<path d="M157.577 54.1542C157.731 54.1542 158.192 54.3081 158.5 54.3081C159.423 54.3081 159.885 53.8465 160.038 53.0773C160.038 52.3081 160.038 52.6158 160.038 52.3081C160.038 52.3081 160.038 52.1542 159.885 52.3081C159.577 52.7696 159.115 53.0773 158.5 53.0773C157.423 53.0773 156.654 52.1542 156.654 50.7696C156.654 49.385 157.423 48.4619 158.654 48.4619C159.115 48.4619 159.423 48.6158 159.731 48.7696L160.346 49.0773C160.346 49.0773 160.346 49.0773 160.346 49.2311V53.0773C160.346 54.3081 159.731 54.9235 158.346 54.9235C158.038 54.9235 157.577 54.9235 157.269 54.7696L156.808 54.6158C156.808 54.6158 156.808 54.6158 156.808 54.4619L156.961 54.1542C156.961 54.1542 156.961 54.1542 157.115 54.1542H157.577ZM159.577 49.2311C159.423 49.0773 158.961 49.0773 158.654 49.0773C157.731 49.0773 157.269 49.6927 157.269 50.7696C157.269 51.8465 157.731 52.4619 158.5 52.4619C159.423 52.4619 159.885 51.6927 159.885 50.6158V49.385L159.577 49.2311Z" fill="#227CBF"/>
<path d="M165.423 52.7691L164.961 52.9229C164.961 52.9229 164.808 52.9229 164.808 52.7691V46.7691C164.808 46.7691 164.808 46.6152 164.961 46.6152H165.423C165.423 46.6152 165.577 46.6152 165.577 46.7691V52.7691H165.423Z" fill="#227CBF"/>
<path d="M167.731 49.2311C167.885 49.2311 167.885 49.2311 167.731 49.2311C168.192 48.7696 168.654 48.4619 169.269 48.4619C170.192 48.4619 170.808 49.0773 170.808 50.1542V52.7696C170.808 52.7696 170.808 52.9235 170.654 52.9235H170.192C170.192 52.9235 170.038 52.9235 170.038 52.7696V50.3081C170.038 49.5388 169.577 49.0773 168.961 49.0773C168.038 49.0773 167.577 49.6927 167.577 50.9235V52.9235C167.577 52.9235 167.577 53.0773 167.423 53.0773H166.961C166.961 53.0773 166.808 53.0773 166.808 52.9235V48.7696C166.808 48.7696 166.808 48.6158 166.961 48.6158H167.269C167.269 48.6158 167.423 48.6158 167.423 48.7696L167.731 49.2311Z" fill="#227CBF"/>
<path d="M172.962 47.6922C172.962 46.923 173.423 46.3076 174.192 46.3076C174.346 46.3076 174.5 46.3076 174.654 46.4615H174.808C174.808 46.4615 174.808 46.4615 174.808 46.6153L174.654 46.923C174.654 46.923 174.654 46.923 174.5 46.923H174.346C174.192 46.923 174.192 46.923 174.039 46.923C173.577 46.923 173.423 47.2307 173.423 47.6922V48.4615H174.346C174.346 48.4615 174.5 48.4615 174.5 48.6153V48.923C174.5 48.923 174.5 49.0768 174.346 49.0768H173.423V52.7692C173.423 52.7692 173.423 52.923 173.269 52.923H172.808C172.808 52.923 172.654 52.923 172.654 52.7692V49.0768H172.192C172.192 49.0768 172.039 49.0768 172.039 48.923V48.6153C172.039 48.6153 172.039 48.4615 172.192 48.4615H172.654V47.6922H172.962Z" fill="#227CBF"/>
<path d="M178.346 48.923C177.269 49.0768 176.808 49.8461 176.808 51.3845V52.7692C176.808 52.7692 176.808 52.923 176.654 52.923H176.192C176.192 52.923 176.039 52.923 176.039 52.7692V48.6153C176.039 48.6153 176.039 48.4615 176.192 48.4615H176.5C176.5 48.4615 176.654 48.4615 176.654 48.6153V49.2307C176.654 49.2307 176.654 49.3845 176.808 49.2307C177.115 48.7692 177.577 48.4615 178.346 48.3076C178.346 48.3076 178.5 48.3076 178.5 48.4615V48.923H178.346Z" fill="#227CBF"/>
<path d="M180.193 48.6158C180.5 48.4619 180.808 48.4619 181.116 48.4619C182.193 48.4619 182.962 49.0773 182.962 50.1542V52.7696C182.962 52.7696 182.962 52.9235 182.808 52.9235H182.5C182.5 52.9235 182.346 52.9235 182.346 52.7696V52.3081C182.346 52.1542 182.193 52.1542 182.193 52.3081C181.885 52.7696 181.423 52.9235 180.808 52.9235C179.885 52.9235 179.423 52.4619 179.423 51.6927C179.423 50.9234 180.039 50.3081 180.962 50.3081H182.346V50.1542C182.346 49.385 181.885 48.9235 181.116 48.9235C180.808 48.9235 180.5 48.9235 180.346 49.0773L180.039 49.2311H179.885L179.731 48.9235V48.7696L180.193 48.6158ZM180.962 50.7696C180.346 50.7696 180.039 51.0773 180.039 51.5388C180.039 52.0004 180.346 52.3081 180.962 52.3081C181.885 52.3081 182.346 51.8465 182.346 50.7696H180.962Z" fill="#227CBF"/>
<path d="M185.577 50.7696C184.962 50.6158 184.654 50.3081 184.654 49.6927C184.654 48.9235 185.269 48.4619 186.192 48.4619C186.654 48.4619 186.962 48.4619 187.269 48.6158L187.577 48.7696C187.577 48.7696 187.577 48.7696 187.577 48.9235L187.423 49.2311C187.423 49.2311 187.423 49.2311 187.269 49.2311L186.962 49.0773C186.654 49.0773 186.346 48.9235 186.038 48.9235C185.423 48.9235 185.115 49.2311 185.115 49.5388C185.115 49.8465 185.269 50.0004 185.731 50.1542L186.808 50.4619C187.577 50.6158 187.885 51.0773 187.885 51.5388C187.885 52.3081 187.269 52.7696 186.192 52.7696C185.731 52.7696 185.269 52.7696 184.808 52.6158L184.5 52.4619C184.5 52.4619 184.5 52.4619 184.5 52.3081L184.654 52.0004C184.654 52.0004 184.654 52.0004 184.808 52.0004L185.115 52.1542C185.423 52.3081 185.885 52.3081 186.346 52.3081C186.962 52.3081 187.423 52.0004 187.423 51.5388C187.423 51.2311 187.269 51.0773 186.808 50.9235L185.577 50.7696Z" fill="#227CBF"/>
<path d="M191.116 48.6155C191.27 48.6155 191.27 48.6155 191.116 48.6155L191.27 49.0771C191.27 49.0771 191.27 49.2309 191.116 49.2309H190.193V52.0002C190.193 52.4617 190.346 52.6155 190.654 52.6155C190.654 52.6155 190.808 52.6155 190.962 52.6155H191.116L191.27 52.9232V53.0771C191.116 53.0771 190.962 53.2309 190.808 53.2309C190.193 53.2309 189.731 52.7694 189.731 52.154V49.3848H189.27C189.27 49.3848 189.116 49.3848 189.116 49.2309V48.9232C189.116 48.9232 189.116 48.7694 189.27 48.7694H189.731V47.6925V47.5386L190.193 47.3848H190.346V48.6155H191.116Z" fill="#227CBF"/>
<path d="M194.962 48.923C193.885 49.0768 193.423 49.8461 193.423 51.3845V52.7692C193.423 52.7692 193.423 52.923 193.269 52.923H192.808C192.808 52.923 192.654 52.923 192.654 52.7692V48.6153C192.654 48.6153 192.654 48.4615 192.808 48.4615H193.115C193.115 48.4615 193.269 48.4615 193.269 48.6153V49.2307C193.269 49.2307 193.269 49.3845 193.423 49.2307C193.731 48.7692 194.192 48.4615 194.962 48.3076C194.962 48.3076 195.115 48.3076 195.115 48.4615V48.923H194.962Z" fill="#227CBF"/>
<path d="M199.731 52.1538C199.269 52.6153 198.808 52.923 198.192 52.923C197.269 52.923 196.654 52.3076 196.654 51.2307V48.6153C196.654 48.6153 196.654 48.4615 196.808 48.4615H197.269C197.269 48.4615 197.423 48.4615 197.423 48.6153V51.0768C197.423 51.8461 197.885 52.3076 198.5 52.3076C199.423 52.3076 199.885 51.6922 199.885 50.4615V48.4615C199.885 48.4615 199.885 48.3076 200.038 48.3076H200.5C200.5 48.3076 200.654 48.3076 200.654 48.4615V52.6153C200.654 52.6153 200.654 52.7692 200.5 52.7692H200.192C200.192 52.7692 200.038 52.7692 200.038 52.6153L199.731 52.1538Z" fill="#227CBF"/>
<path d="M204.654 52.7692C204.346 52.923 204.039 52.923 203.731 52.923C202.346 52.923 201.731 51.9999 201.731 50.6153C201.731 49.2307 202.5 48.3076 203.731 48.3076C204.039 48.3076 204.193 48.3076 204.5 48.4615L204.808 48.6153C204.808 48.6153 204.808 48.6153 204.808 48.7692L204.654 49.0768C204.654 49.0768 204.654 49.0768 204.5 49.0768H204.193C203.885 48.923 203.731 48.923 203.577 48.923C202.654 48.923 202.039 49.5384 202.039 50.6153C202.039 51.6922 202.5 52.3076 203.423 52.3076C203.577 52.3076 203.885 52.3076 204.193 52.1538H204.5H204.654L204.808 52.4615V52.6153L204.654 52.7692Z" fill="#227CBF"/>
<path d="M208.5 48.6155L208.654 49.0771C208.654 49.0771 208.654 49.2309 208.5 49.2309H207.577V52.0002C207.577 52.4617 207.731 52.6155 208.038 52.6155C208.038 52.6155 208.192 52.6155 208.346 52.6155H208.5L208.654 52.9232V53.0771C208.5 53.0771 208.346 53.2309 208.192 53.2309C207.577 53.2309 207.115 52.7694 207.115 52.154V49.3848H206.654C206.654 49.3848 206.5 49.3848 206.5 49.2309V48.9232C206.5 48.9232 206.5 48.7694 206.654 48.7694H207.115V47.6925V47.5386L207.577 47.3848H207.731V48.6155H208.5Z" fill="#227CBF"/>
<path d="M213.269 52.1538C212.808 52.6153 212.346 52.923 211.731 52.923C210.808 52.923 210.192 52.3076 210.192 51.2307V48.6153C210.192 48.6153 210.192 48.4615 210.346 48.4615H210.808C210.808 48.4615 210.962 48.4615 210.962 48.6153V51.0768C210.962 51.8461 211.423 52.3076 212.039 52.3076C212.962 52.3076 213.423 51.6922 213.423 50.4615V48.4615C213.423 48.4615 213.423 48.3076 213.577 48.3076H214.039C214.039 48.3076 214.192 48.3076 214.192 48.4615V52.6153C214.192 52.6153 214.192 52.7692 214.039 52.7692H213.731C213.731 52.7692 213.577 52.7692 213.577 52.6153L213.269 52.1538Z" fill="#227CBF"/>
<path d="M217.731 48.923C216.654 49.0768 216.193 49.8461 216.193 51.3845V52.7692C216.193 52.7692 216.193 52.923 216.039 52.923H215.577C215.577 52.923 215.423 52.923 215.423 52.7692V48.6153C215.423 48.6153 215.423 48.4615 215.577 48.4615H215.885C215.885 48.4615 216.039 48.4615 216.039 48.6153V49.2307C216.039 49.2307 216.039 49.3845 216.193 49.2307C216.5 48.7692 216.962 48.4615 217.731 48.3076C217.731 48.3076 217.885 48.3076 217.885 48.4615V48.923H217.731Z" fill="#227CBF"/>
<path d="M221.885 52.7692C221.577 52.923 221.269 52.923 220.961 52.923C219.731 52.923 218.961 51.9999 218.961 50.6153C218.961 49.2307 219.731 48.3076 220.961 48.3076C222.038 48.3076 222.654 48.7692 222.654 49.6922C222.654 50.3076 222.192 50.6153 221.423 50.7692L219.731 51.0768C219.885 51.8461 220.346 52.3076 221.115 52.3076C221.423 52.3076 221.731 52.3076 221.885 52.1538L222.192 51.9999H222.346L222.5 52.3076V52.4615L221.885 52.7692ZM221.269 50.4615C221.731 50.3076 222.038 50.1538 222.038 49.8461C222.038 49.3845 221.577 49.0768 220.961 49.0768C220.192 49.0768 219.577 49.6922 219.577 50.7692L221.269 50.4615Z" fill="#227CBF"/>
<path d="M230.038 49.5383L230.192 49.9999C230.192 49.9999 230.192 50.1537 230.038 50.1537H227.269V52.7691C227.269 52.7691 227.269 52.9229 227.115 52.9229H226.808C226.808 52.9229 226.654 52.9229 226.654 52.7691V46.7691C226.654 46.7691 226.654 46.6152 226.808 46.6152H230.654C230.654 46.6152 230.808 46.6152 230.654 46.7691L230.5 47.0768C230.5 47.0768 230.5 47.0768 230.346 47.0768H227.115V49.5383H230.038Z" fill="#227CBF"/>
<path d="M233.116 52.7692L232.654 52.923C232.654 52.923 232.5 52.923 232.5 52.7692V49.0768H232.039C232.039 49.0768 231.885 49.0768 231.885 48.923V48.6153C231.885 48.6153 231.885 48.4615 232.039 48.4615H232.962C232.962 48.4615 233.116 48.4615 233.116 48.6153V52.7692ZM233.116 46.7692C233.116 47.0768 232.962 47.2307 232.654 47.2307C232.346 47.2307 232.192 47.0768 232.192 46.7692C232.192 46.4615 232.346 46.3076 232.654 46.3076C232.962 46.3076 233.116 46.6153 233.116 46.7692Z" fill="#227CBF"/>
<path d="M235.423 49.2311C235.885 48.7696 236.346 48.4619 236.962 48.4619C237.885 48.4619 238.5 49.0773 238.5 50.1542V52.7696C238.5 52.7696 238.5 52.9235 238.346 52.9235H237.885C237.885 52.9235 237.731 52.9235 237.731 52.7696V50.3081C237.731 49.5388 237.269 49.0773 236.654 49.0773C235.731 49.0773 235.269 49.6927 235.269 50.9235V52.9235C235.269 52.9235 235.269 53.0773 235.115 53.0773H234.654C234.654 53.0773 234.5 53.0773 234.5 52.9235V48.7696C234.5 48.7696 234.5 48.6158 234.654 48.6158H234.962C234.962 48.6158 235.115 48.6158 235.115 48.7696L235.423 49.2311Z" fill="#227CBF"/>
<path d="M240.808 48.6158C241.115 48.4619 241.423 48.4619 241.731 48.4619C242.808 48.4619 243.577 49.0773 243.577 50.1542V52.7696C243.577 52.7696 243.577 52.9235 243.423 52.9235H243.115C243.115 52.9235 242.962 52.9235 242.962 52.7696V52.3081C242.962 52.1542 242.808 52.1542 242.808 52.3081C242.5 52.7696 242.039 52.9235 241.423 52.9235C240.5 52.9235 240.039 52.4619 240.039 51.6927C240.039 50.9234 240.654 50.3081 241.577 50.3081H242.962V50.1542C242.962 49.385 242.5 48.9235 241.731 48.9235C241.423 48.9235 241.115 48.9235 240.962 49.0773L240.654 49.2311H240.5L240.346 48.9235V48.7696L240.808 48.6158ZM241.577 50.7696C240.962 50.7696 240.654 51.0773 240.654 51.5388C240.654 52.0004 240.962 52.3081 241.577 52.3081C242.5 52.3081 242.962 51.8465 242.962 50.7696H241.577Z" fill="#227CBF"/>
<path d="M245.731 49.2311C245.885 49.2311 245.885 49.2311 245.731 49.2311C246.192 48.7696 246.654 48.4619 247.269 48.4619C248.192 48.4619 248.808 49.0773 248.808 50.1542V52.7696C248.808 52.7696 248.808 52.9235 248.654 52.9235H248.192C248.192 52.9235 248.038 52.9235 248.038 52.7696V50.3081C248.038 49.5388 247.577 49.0773 246.961 49.0773C246.038 49.0773 245.577 49.6927 245.577 50.9235V52.9235C245.577 52.9235 245.577 53.0773 245.423 53.0773H244.961C244.961 53.0773 244.808 53.0773 244.808 52.9235V48.7696C244.808 48.7696 244.808 48.6158 244.961 48.6158H245.269C245.269 48.6158 245.423 48.6158 245.423 48.7696L245.731 49.2311Z" fill="#227CBF"/>
<path d="M253.423 52.7692C253.115 52.923 252.808 52.923 252.5 52.923C251.115 52.923 250.5 51.9999 250.5 50.6153C250.5 49.2307 251.269 48.3076 252.5 48.3076C252.808 48.3076 252.962 48.3076 253.269 48.4615L253.577 48.6153C253.577 48.6153 253.577 48.6153 253.577 48.7692L253.423 49.0768C253.423 49.0768 253.423 49.0768 253.269 49.0768H252.962C252.654 48.923 252.5 48.923 252.346 48.923C251.423 48.923 250.808 49.5384 250.808 50.6153C250.808 51.6922 251.269 52.3076 252.192 52.3076C252.346 52.3076 252.654 52.3076 252.962 52.1538H253.269H253.423L253.577 52.4615V52.6153L253.423 52.7692Z" fill="#227CBF"/>
<path d="M258.039 52.7692C257.731 52.923 257.423 52.923 257.116 52.923C255.885 52.923 255.116 51.9999 255.116 50.6153C255.116 49.2307 255.885 48.3076 257.116 48.3076C258.193 48.3076 258.808 48.7692 258.808 49.6922C258.808 50.3076 258.347 50.6153 257.577 50.7692L255.885 51.0768C256.039 51.8461 256.5 52.3076 257.27 52.3076C257.577 52.3076 257.885 52.3076 258.039 52.1538L258.347 51.9999H258.5L258.654 52.3076V52.4615L258.039 52.7692ZM257.27 50.4615C257.731 50.3076 258.039 50.1538 258.039 49.8461C258.039 49.3845 257.577 49.0768 256.962 49.0768C256.193 49.0768 255.577 49.6922 255.577 50.7692L257.27 50.4615Z" fill="#227CBF"/>
</svg>
