<svg width="299" height="92" viewBox="0 0 299 92" fill="none" xmlns="http://www.w3.org/2000/svg">
<path d="M1.04639 1.43066H8.61562V42.5999H1.04639V1.43066Z" fill="white"/>
<path d="M17.8462 11.7698H24.677V14.539C25.6 13.2467 26.8923 12.3236 28.3693 11.5852C29.8462 10.8467 31.5077 10.6621 33.1693 10.6621C34.8308 10.6621 36.3077 11.0313 37.9693 11.5852C39.4462 12.3236 40.9231 13.2467 42.0308 14.3544L42.7693 15.2775C43.877 16.7544 44.6154 18.416 44.8 20.0775C45.1693 21.739 45.1693 23.9544 45.1693 26.3544V42.2313H37.7846V27.6467C37.7846 25.8006 37.7847 24.139 37.6 23.216C37.4154 22.1083 37.0462 21.1852 36.4923 20.2621C35.9385 19.339 35.2 18.7852 34.277 18.2313C33.3539 17.8621 32.4308 17.4929 31.5077 17.4929C30.4 17.4929 29.477 17.6775 28.5539 18.2313C27.6308 18.7852 26.8923 19.339 26.5231 20.0775C26.1539 20.816 25.7847 21.739 25.6 22.6621C25.4154 23.7698 25.2308 25.2467 25.2308 27.0929V28.016V42.0467H17.8462V11.7698Z" fill="white"/>
<path d="M53.2926 18.4155H50.708V11.7694H53.2926C53.2926 8.63089 54.2157 6.04627 56.0619 3.83089C57.908 1.6155 60.308 0.507812 63.4465 0.507812H65.4772V7.89243C63.6311 7.89243 62.5234 8.07704 61.7849 8.44627C61.0465 8.81551 60.8619 9.9232 60.8619 11.5847H65.108V18.2309H60.8619V42.4155H53.4772V18.4155H53.2926Z" fill="white"/>
<path d="M70.6465 11.7698H77.4773V14.539C78.4003 13.2467 79.3234 12.3236 80.4311 11.5852C81.5388 11.0313 82.8311 10.6621 84.308 10.6621H84.8619V17.8621C83.2003 17.8621 81.7234 18.2313 80.6157 19.1544C79.508 20.0775 78.7696 21.0006 78.585 21.9236C78.4003 22.8467 78.2157 24.3236 78.2157 25.8006V42.416H70.8311V11.7698H70.6465Z" fill="white"/>
<path d="M121.6 42.6005H114.769V38.3544C113.662 40.0159 112 41.1236 110.154 42.0467C108.123 42.9698 106.277 43.339 104.246 43.339C101.846 43.339 99.8156 42.9698 97.7849 42.0467C95.9387 41.1236 93.908 39.4621 91.8772 37.2467C89.8464 34.8467 88.9233 31.5236 88.9233 27.0928C88.9233 24.8774 89.2926 22.8467 89.8464 21.1851C90.4003 19.339 91.8772 17.3082 94.0926 14.7236C96.308 12.139 99.8156 10.8467 104.246 10.8467C108.677 10.8467 112 12.6928 114.585 16.2005V11.7698H121.416V42.6005H121.6ZM105.723 18.0467C102.954 18.0467 100.739 18.9698 99.0772 20.6313C97.4156 22.4774 96.4926 24.6928 96.4926 27.4621C96.4926 30.0467 97.4156 32.0774 99.0772 33.739C100.923 35.4005 102.954 36.3236 105.539 36.3236C108.123 36.3236 110.339 35.4005 112 33.739C113.662 32.0774 114.585 29.8621 114.585 27.0928C114.585 24.5082 113.846 22.2928 112.185 20.6313C110.523 18.9698 108.308 18.0467 105.723 18.0467Z" fill="white"/>
<path d="M168.123 31.3385C166.646 35.0308 164.062 37.9847 160.554 40.2001C157.046 42.4155 153.169 43.5232 149.108 43.5232C143.2 43.5232 138.215 41.3078 133.969 37.0616C129.723 32.8155 127.692 27.8308 127.692 21.9232C127.692 16.0155 129.723 11.0308 133.969 6.96931C138.215 2.72315 143.015 0.692383 148.923 0.692383C153.169 0.692383 157.046 1.80007 160.739 4.01546C164.431 6.23084 167.015 9.36931 168.492 13.2462H159.815C158.523 11.5847 156.862 10.477 155.015 9.55392C153.169 8.63084 151.139 8.26161 149.108 8.26161C145.415 8.26161 142.092 9.73854 139.508 12.5078C136.923 15.277 135.631 18.6001 135.631 22.477C135.631 26.1693 136.923 29.3078 139.692 32.2616C142.462 35.0308 145.6 36.5078 149.292 36.5078C151.323 36.5078 153.169 36.1385 154.831 35.2155C156.492 34.477 158.154 33.1847 159.631 31.7078H168.123V31.3385Z" fill="white"/>
<path d="M174.4 11.7698H181.231V14.539C182.154 13.2467 183.077 12.3236 184.185 11.5852C185.293 11.0313 186.585 10.6621 188.062 10.6621H188.616V17.8621C186.954 17.8621 185.477 18.2313 184.37 19.1544C183.262 20.0775 182.523 21.0006 182.339 21.9236C182.154 22.8467 181.97 24.3236 181.97 25.8006V42.416H174.585V11.7698H174.4Z" fill="white"/>
<path d="M200.616 30.6005C201.17 32.4466 202.277 33.7389 203.754 34.8466C205.231 35.9543 206.893 36.5082 208.739 36.5082C211.693 36.5082 214.093 35.5851 215.57 33.9236H223.693C222.77 36.6928 220.739 38.9082 217.97 40.9389C215.2 42.7851 212.062 43.8928 208.923 43.8928C204.493 43.8928 200.616 42.2312 197.477 39.0928C194.339 35.9543 192.677 32.0774 192.677 27.6466C192.677 23.0312 194.339 19.1543 197.477 15.8312C200.616 12.5082 204.493 11.0312 209.108 11.0312C213.539 11.0312 217.231 12.6928 220.37 15.8312C223.508 18.9697 224.985 22.8466 224.985 27.2774C224.985 27.8312 224.985 28.3851 224.8 29.1236C224.616 29.862 224.616 30.4159 224.616 30.7851H200.616V30.6005ZM217.6 23.9543C217.046 22.1082 215.939 20.8159 214.462 19.7082C212.985 18.6005 211.139 18.0466 209.293 18.0466C207.446 18.0466 205.6 18.6005 203.939 19.7082C202.277 20.8159 201.17 22.2928 200.616 23.9543H217.6Z" fill="white"/>
<path d="M262.831 42.5999H256V38.3537C254.893 40.0153 253.416 41.3076 251.57 42.0461C249.723 42.9691 247.693 43.3384 245.662 43.3384C243.447 43.3384 241.416 42.9691 239.57 42.0461C237.723 41.123 236.062 39.8307 234.77 38.3537C233.477 36.6922 232.37 35.0307 231.631 33.1845C230.893 31.3384 230.523 29.3076 230.523 27.2768C230.523 22.8461 231.631 19.523 233.662 17.123C235.693 14.723 237.908 13.0614 239.939 12.1384C241.97 11.2153 244 10.6614 246.216 10.6614C248.062 10.6614 249.908 11.0307 251.57 11.7691C253.231 12.5076 254.708 13.4307 255.816 14.9076V1.43066H263.2V42.5999H262.831ZM246.77 18.046C244.37 18.046 242.339 18.9691 240.493 20.6307C238.647 22.4768 237.723 24.5076 237.723 26.9076C237.723 29.4922 238.647 31.7076 240.308 33.5537C241.97 35.3999 244.185 36.323 246.77 36.323C249.354 36.323 251.57 35.3999 253.231 33.5537C255.077 31.7076 256 29.4922 256 27.0922C256 24.5076 255.077 22.4768 253.231 20.6307C251.57 18.9691 249.354 18.046 246.77 18.046Z" fill="white"/>
<path d="M270.4 1.43066H277.785V8.26143H270.4V1.43066ZM270.4 11.7691H277.785V42.5999H270.4V11.7691Z" fill="white"/>
<path d="M286.831 18.4153H283.139V11.7691H286.831V1.43066H294.216V11.7691H298.646V18.4153H294.216V42.5999H286.831V18.4153Z" fill="white"/>
<path d="M60.1234 83.9541C57.7234 82.8464 55.508 81.3695 53.2926 80.0772C51.0772 78.6003 49.0465 76.9387 47.0157 75.2772C44.9849 73.6157 43.1388 71.7695 41.2926 69.7387C40.3696 68.8157 39.6311 67.708 38.708 66.7849C38.5234 66.6003 38.3388 66.2311 38.1542 66.0464C37.9696 65.8618 37.7849 65.4926 37.6003 65.308C37.2311 64.9387 36.8619 64.5695 36.6772 64.2003C35.3849 62.7234 34.0926 61.2464 32.9849 59.5849C31.6926 57.7387 30.7696 56.0772 29.8465 54.2311C29.4772 53.4926 29.108 52.5695 28.7388 51.8311H0.677246C1.04648 52.7541 1.41571 53.4926 1.78494 54.4157C2.89263 56.8157 4.18494 59.0311 5.66186 61.4311C7.13878 63.6464 8.61571 65.8618 10.4619 67.708C12.1234 69.7387 13.9696 71.5849 16.0003 73.4311C17.8465 75.2772 19.8772 76.9387 22.0926 78.4157C24.1234 79.8926 26.3388 81.3695 28.7388 82.6618C30.9542 83.9541 33.3542 85.0618 35.7542 86.1695C38.1542 87.0926 40.7388 88.0157 43.1388 88.7541C45.7234 89.4926 48.308 90.0464 50.8926 90.4157C52.0003 90.6003 53.108 90.7849 54.2157 90.7849C54.9542 90.7849 55.8772 90.9695 56.6157 90.9695C57.3542 90.9695 58.2772 90.9695 59.0157 91.1541C59.3849 91.1541 59.9388 91.1541 60.308 91.1541C60.6772 91.1541 61.0465 91.1541 61.2311 91.1541C61.9695 91.1541 62.708 91.1541 63.4465 91.1541C64.3695 91.1541 65.108 91.1541 66.0311 90.9695C67.1388 90.9695 68.0619 90.7849 69.1695 90.6003C71.0157 90.4157 72.8619 90.0464 74.708 89.4926C72.1234 88.9387 69.5388 88.2003 67.1388 87.2772C64.9234 86.1695 62.5234 85.0618 60.1234 83.9541Z" fill="white"/>
<path opacity="0.12" d="M16.0003 73.4309C17.8465 75.277 19.8772 76.9386 22.0926 78.4155C24.1234 79.8924 26.3388 81.3693 28.7388 82.6616C30.9542 83.954 33.3542 85.0616 35.7542 86.1693C38.1542 87.0924 40.7388 88.0155 43.1388 88.754C45.7234 89.4924 48.308 90.0463 50.8926 90.4155C52.0003 90.6001 53.108 90.7847 54.2157 90.7847C54.9542 90.7847 55.8772 90.9693 56.6157 90.9693C57.3542 90.9693 58.2772 90.9693 59.0157 91.154C59.3849 91.154 59.9388 91.154 60.308 91.154C60.6772 91.154 61.0465 91.154 61.2311 91.154C61.9696 91.154 62.708 91.154 63.4465 91.154C64.3696 91.154 65.108 91.154 66.0311 90.9693C67.1388 90.9693 68.0619 90.7847 69.1696 90.6001C71.0157 90.4155 72.8619 90.0463 74.708 89.4924C72.1234 88.9386 69.5388 88.2001 67.1388 87.277C64.7388 86.354 62.3388 85.4309 59.9388 84.1386C57.5388 83.0309 55.3234 81.554 53.108 80.2616C50.8926 78.7847 48.8619 77.1232 46.8311 75.4616C44.8003 73.8001 42.9542 71.954 41.108 69.9232C40.1849 69.0001 39.4465 67.8924 38.5234 66.9693C38.3388 66.7847 38.1542 66.4155 37.9696 66.2309C37.7849 66.0463 37.6003 65.677 37.4157 65.4924C37.0465 65.1232 36.8619 64.9386 36.4926 64.5693C28.0003 65.8616 20.0619 67.8924 12.6772 70.477C13.7849 71.2155 14.8926 72.3232 16.0003 73.4309Z" fill="white"/>
<path d="M93.1696 51.8311C92.4312 53.4926 91.6927 54.9695 90.7696 56.4464C89.8466 58.108 88.7389 59.7695 87.4466 61.2464C86.3389 62.7234 85.0466 64.0157 83.7542 65.308C82.2773 66.6003 80.8004 67.8926 79.1389 69.0003C77.1081 70.4772 74.8927 71.5849 72.4927 72.508C70.0927 73.4311 67.6927 73.9849 65.2927 74.1695C62.7081 74.3541 60.3081 74.3541 57.7235 73.9849C55.3235 73.6157 52.9235 72.8772 50.7081 71.7695C48.4927 70.8464 46.4619 69.5541 44.6158 68.2618C43.1389 67.1541 41.6619 65.8618 40.3696 64.5695C41.8466 66.6003 43.6927 68.6311 45.3542 70.2926C47.2004 72.1387 49.0466 73.8003 51.0773 75.4618C53.1081 77.1234 55.1389 78.6003 57.3542 79.8926C59.5696 81.1849 61.785 82.4772 64.0004 83.5849C66.4004 84.6926 68.6158 85.6157 71.2004 86.3541C72.4927 86.7234 73.6004 87.0926 74.8927 87.4618C75.2619 87.4618 75.4466 87.6464 75.8158 87.6464C76.0004 87.6464 76.185 87.6464 76.185 87.8311H76.3696H76.5542C77.1081 87.6464 77.8465 87.4618 78.4004 87.2772C80.8004 86.5387 83.2004 85.8003 85.6004 84.8772C87.8158 83.9541 90.0312 82.8464 92.2466 81.7387C94.2773 80.6311 96.4927 79.3387 98.3389 77.8618C100.37 76.3849 102.216 74.908 104.062 73.4311C105.723 71.9541 107.385 70.2926 108.862 68.6311C110.339 67.1541 111.631 65.4926 112.739 63.8311C114.031 62.1695 115.139 60.3234 116.247 58.6618C117.354 56.8157 118.277 54.9695 119.2 53.1234C119.385 52.7541 119.57 52.3849 119.754 52.0157H93.1696V51.8311Z" fill="white"/>
<path opacity="0.12" d="M45.5389 70.2925C47.385 72.1386 49.2312 73.8001 51.2619 75.4617C53.2927 77.1232 55.3235 78.6002 57.5389 79.8925C59.7542 81.1848 61.9696 82.4771 64.185 83.5848C66.585 84.6925 68.8004 85.6155 71.385 86.354C72.6773 86.7232 73.785 87.0925 75.0773 87.4617C75.4465 87.4617 75.6312 87.6463 76.0004 87.6463C76.185 87.6463 76.3696 87.6463 76.3696 87.8309H76.5542H76.7389C77.2927 87.6463 78.0312 87.4617 78.585 87.2771C80.985 86.5386 83.385 85.8001 85.785 84.8771C88.0004 83.954 90.2158 82.8463 92.4312 81.7386C94.4619 80.6309 96.6773 79.3386 98.5235 77.8617C100.554 76.3848 102.4 74.9078 104.247 73.4309C105.354 72.3232 106.647 71.2155 107.754 70.1078C100.554 67.7078 92.8004 65.6771 84.6773 64.3848C84.3081 64.754 84.1235 64.9386 83.7542 65.3078C82.2773 66.6002 80.8004 67.8925 79.1389 69.0002C77.1081 70.4771 74.8927 71.5848 72.4927 72.5078C70.0927 73.4309 67.6927 73.9848 65.2927 74.1694C62.7081 74.354 60.3081 74.354 57.7235 73.9848C55.3235 73.6155 52.9235 72.8771 50.7081 71.7694C48.4927 70.8463 46.4619 69.554 44.6158 68.2617C43.1389 67.154 41.6619 65.8617 40.3696 64.5694C42.2158 66.4155 43.8773 68.4463 45.5389 70.2925Z" fill="white"/>
<path d="M137.292 56.6308C136.185 56.2616 135.631 55.5231 135.631 54.7846C135.631 53.6769 136.554 52.9385 138.031 52.9385C138.585 52.9385 139.139 53.1231 139.692 53.1231L140.246 53.3077C140.246 53.3077 140.246 53.3077 140.246 53.4923L140.062 53.8616C140.062 53.8616 140.062 53.8616 139.877 53.8616L139.323 53.6769C138.769 53.4923 138.4 53.4923 137.846 53.4923C136.923 53.4923 136.185 54.0462 136.185 54.7846C136.185 55.3385 136.369 55.7077 137.292 56.0769L138.769 56.6308C139.692 57 140.431 57.5539 140.431 58.4769C140.431 59.7692 139.323 60.5077 137.846 60.5077C137.108 60.5077 136.369 60.3231 135.816 60.1385L135.446 59.9539C135.446 59.9539 135.446 59.9539 135.446 59.7692L135.631 59.4C135.631 59.4 135.631 59.4 135.816 59.4L136.185 59.5846C136.739 59.7693 137.292 59.9539 138.031 59.9539C138.954 59.9539 139.877 59.4 139.877 58.6616C139.877 58.1077 139.323 57.7385 138.769 57.3692L137.292 56.6308Z" fill="white"/>
<path d="M145.785 60.3236C145.415 60.5082 145.046 60.5082 144.677 60.5082C143.2 60.5082 142.277 59.4005 142.277 57.739C142.277 56.0774 143.2 54.9697 144.677 54.9697C145.969 54.9697 146.708 55.5236 146.708 56.6313C146.708 57.3697 146.154 57.739 145.231 57.9236L143.2 58.2928C143.385 59.2159 143.938 59.7697 144.861 59.7697C145.231 59.7697 145.6 59.7697 145.785 59.5851L146.154 59.4005H146.338L146.523 59.7697V59.9543L145.785 60.3236ZM145.046 57.5543C145.6 57.3697 145.969 57.1851 145.969 56.8159C145.969 56.262 145.415 55.8928 144.677 55.8928C143.754 55.8928 143.015 56.6313 143.015 57.9236L145.046 57.5543Z" fill="white"/>
<path d="M151.692 60.3236C151.323 60.5082 150.954 60.5082 150.585 60.5082C148.923 60.5082 148.185 59.4005 148.185 57.739C148.185 56.0774 149.108 54.9697 150.585 54.9697C150.954 54.9697 151.138 54.9697 151.508 55.1543L151.877 55.339C151.877 55.339 151.877 55.339 151.877 55.5236L151.692 55.8928C151.692 55.8928 151.692 55.8928 151.508 55.8928H151.138C150.769 55.7082 150.585 55.7082 150.4 55.7082C149.292 55.7082 148.554 56.4467 148.554 57.739C148.554 59.0313 149.108 59.7697 150.215 59.7697C150.4 59.7697 150.769 59.7697 151.138 59.5851H151.508H151.692L151.877 59.9543V60.139L151.692 60.3236Z" fill="white"/>
<path d="M157.785 59.5851C157.231 60.139 156.677 60.5082 155.938 60.5082C154.831 60.5082 154.092 59.7697 154.092 58.4774V55.339C154.092 55.339 154.092 55.1543 154.277 55.1543H154.831C154.831 55.1543 155.015 55.1543 155.015 55.339V58.2928C155.015 59.2159 155.569 59.7697 156.308 59.7697C157.415 59.7697 157.969 59.0313 157.969 57.5543V55.1543C157.969 55.1543 157.969 54.9697 158.154 54.9697H158.708C158.708 54.9697 158.892 54.9697 158.892 55.1543V60.139C158.892 60.139 158.892 60.3236 158.708 60.3236H158.338C158.338 60.3236 158.154 60.3236 158.154 60.139L157.785 59.5851Z" fill="white"/>
<path d="M163.138 55.7082C161.846 55.8928 161.292 56.8159 161.292 58.662V60.3236C161.292 60.3236 161.292 60.5082 161.108 60.5082H160.554C160.554 60.5082 160.369 60.5082 160.369 60.3236V55.339C160.369 55.339 160.369 55.1543 160.554 55.1543H160.923C160.923 55.1543 161.108 55.1543 161.108 55.339V56.0774C161.108 56.0774 161.108 56.262 161.292 56.0774C161.661 55.5236 162.215 55.1543 163.138 54.9697C163.138 54.9697 163.323 54.9697 163.323 55.1543V55.7082H163.138Z" fill="white"/>
<path d="M166.277 60.3232L165.723 60.5078C165.723 60.5078 165.539 60.5078 165.539 60.3232V55.8924H164.985C164.985 55.8924 164.8 55.8924 164.8 55.7078V55.3386C164.8 55.3386 164.8 55.154 164.985 55.154H166.093C166.093 55.154 166.277 55.154 166.277 55.3386V60.3232ZM166.277 53.1232C166.277 53.4924 166.093 53.677 165.723 53.677C165.354 53.677 165.17 53.4924 165.17 53.1232C165.17 52.7539 165.354 52.5693 165.723 52.5693C166.093 52.5693 166.277 52.9386 166.277 53.1232Z" fill="white"/>
<path d="M169.046 56.0774C169.6 55.5235 170.154 55.1543 170.892 55.1543C172 55.1543 172.738 55.8928 172.738 57.1851V60.3235C172.738 60.3235 172.738 60.5081 172.554 60.5081H172C172 60.5081 171.815 60.5081 171.815 60.3235V57.3697C171.815 56.4466 171.262 55.8928 170.523 55.8928C169.415 55.8928 168.862 56.6312 168.862 58.1081V60.5081C168.862 60.5081 168.862 60.6928 168.677 60.6928H168.123C168.123 60.6928 167.938 60.6928 167.938 60.5081V55.5235C167.938 55.5235 167.938 55.3389 168.123 55.3389H168.492C168.492 55.3389 168.677 55.3389 168.677 55.5235L169.046 56.0774Z" fill="white"/>
<path d="M175.693 61.9851C175.877 61.9851 176.431 62.1697 176.8 62.1697C177.908 62.1697 178.462 61.6158 178.646 60.6928C178.646 59.7697 178.646 60.1389 178.646 59.7697C178.646 59.7697 178.646 59.5851 178.462 59.7697C178.093 60.3235 177.539 60.6928 176.8 60.6928C175.508 60.6928 174.585 59.5851 174.585 57.9235C174.585 56.262 175.508 55.1543 176.985 55.1543C177.539 55.1543 177.908 55.3389 178.277 55.5235L179.016 55.8928C179.016 55.8928 179.016 55.8928 179.016 56.0774V60.6928C179.016 62.1697 178.277 62.9081 176.616 62.9081C176.246 62.9081 175.693 62.9081 175.323 62.7235L174.77 62.5389C174.77 62.5389 174.77 62.5389 174.77 62.3543L174.954 61.9851C174.954 61.9851 174.954 61.9851 175.139 61.9851H175.693ZM178.093 56.0774C177.908 55.8928 177.354 55.8928 176.985 55.8928C175.877 55.8928 175.323 56.6312 175.323 57.9235C175.323 59.2158 175.877 59.9543 176.8 59.9543C177.908 59.9543 178.462 59.0312 178.462 57.7389V56.262L178.093 56.0774Z" fill="white"/>
<path d="M185.108 60.3231L184.554 60.5077C184.554 60.5077 184.369 60.5077 184.369 60.3231V53.1231C184.369 53.1231 184.369 52.9385 184.554 52.9385H185.108C185.108 52.9385 185.292 52.9385 185.292 53.1231V60.3231H185.108Z" fill="white"/>
<path d="M187.877 56.0774C188.062 56.0774 188.062 56.0774 187.877 56.0774C188.431 55.5235 188.985 55.1543 189.723 55.1543C190.831 55.1543 191.57 55.8928 191.57 57.1851V60.3235C191.57 60.3235 191.57 60.5081 191.385 60.5081H190.831C190.831 60.5081 190.646 60.5081 190.646 60.3235V57.3697C190.646 56.4466 190.093 55.8928 189.354 55.8928C188.246 55.8928 187.693 56.6312 187.693 58.1081V60.5081C187.693 60.5081 187.693 60.6928 187.508 60.6928H186.954C186.954 60.6928 186.77 60.6928 186.77 60.5081V55.5235C186.77 55.5235 186.77 55.3389 186.954 55.3389H187.323C187.323 55.3389 187.508 55.3389 187.508 55.5235L187.877 56.0774Z" fill="white"/>
<path d="M194.154 54.2309C194.154 53.3078 194.708 52.5693 195.631 52.5693C195.816 52.5693 196 52.5693 196.185 52.754H196.369C196.369 52.754 196.369 52.7539 196.369 52.9386L196.185 53.3078C196.185 53.3078 196.185 53.3078 196 53.3078H195.816C195.631 53.3078 195.631 53.3078 195.446 53.3078C194.893 53.3078 194.708 53.677 194.708 54.2309V55.154H195.816C195.816 55.154 196 55.154 196 55.3386V55.7078C196 55.7078 196 55.8924 195.816 55.8924H194.708V60.3232C194.708 60.3232 194.708 60.5078 194.523 60.5078H193.969C193.969 60.5078 193.785 60.5078 193.785 60.3232V55.8924H193.231C193.231 55.8924 193.046 55.8924 193.046 55.7078V55.3386C193.046 55.3386 193.046 55.154 193.231 55.154H193.785V54.2309H194.154Z" fill="white"/>
<path d="M200.615 55.7082C199.323 55.8928 198.769 56.8159 198.769 58.662V60.3236C198.769 60.3236 198.769 60.5082 198.585 60.5082H198.031C198.031 60.5082 197.846 60.5082 197.846 60.3236V55.339C197.846 55.339 197.846 55.1543 198.031 55.1543H198.4C198.4 55.1543 198.585 55.1543 198.585 55.339V56.0774C198.585 56.0774 198.585 56.262 198.769 56.0774C199.138 55.5236 199.692 55.1543 200.615 54.9697C200.615 54.9697 200.8 54.9697 200.8 55.1543V55.7082H200.615Z" fill="white"/>
<path d="M202.831 55.3389C203.2 55.1543 203.569 55.1543 203.938 55.1543C205.231 55.1543 206.154 55.8928 206.154 57.1851V60.3235C206.154 60.3235 206.154 60.5081 205.969 60.5081H205.6C205.6 60.5081 205.415 60.5081 205.415 60.3235V59.7697C205.415 59.5851 205.231 59.5851 205.231 59.7697C204.862 60.3235 204.308 60.5081 203.569 60.5081C202.462 60.5081 201.908 59.9543 201.908 59.0312C201.908 58.1081 202.646 57.3697 203.754 57.3697H205.415V57.1851C205.415 56.262 204.862 55.7081 203.938 55.7081C203.569 55.7081 203.2 55.7081 203.015 55.8928L202.646 56.0774H202.462L202.277 55.7081V55.5235L202.831 55.3389ZM203.754 57.9235C203.015 57.9235 202.646 58.2928 202.646 58.8466C202.646 59.4005 203.015 59.7697 203.754 59.7697C204.862 59.7697 205.415 59.2158 205.415 57.9235H203.754Z" fill="white"/>
<path d="M209.292 57.9235C208.554 57.7389 208.185 57.3697 208.185 56.6312C208.185 55.7081 208.923 55.1543 210.031 55.1543C210.585 55.1543 210.954 55.1543 211.323 55.3389L211.692 55.5235C211.692 55.5235 211.692 55.5235 211.692 55.7081L211.508 56.0774C211.508 56.0774 211.508 56.0774 211.323 56.0774L210.954 55.8928C210.585 55.8928 210.215 55.7081 209.846 55.7081C209.108 55.7081 208.738 56.0774 208.738 56.4466C208.738 56.8158 208.923 57.0004 209.477 57.1851L210.769 57.5543C211.692 57.7389 212.062 58.2928 212.062 58.8466C212.062 59.7697 211.323 60.3235 210.031 60.3235C209.477 60.3235 208.923 60.3235 208.369 60.1389L208 59.9543C208 59.9543 208 59.9543 208 59.7697L208.185 59.4004C208.185 59.4004 208.185 59.4004 208.369 59.4004L208.738 59.5851C209.108 59.7697 209.662 59.7697 210.215 59.7697C210.954 59.7697 211.508 59.4005 211.508 58.8466C211.508 58.4774 211.323 58.2928 210.769 58.1081L209.292 57.9235Z" fill="white"/>
<path d="M215.939 55.3383C216.123 55.3383 216.123 55.3383 215.939 55.3383L216.123 55.8921C216.123 55.8921 216.123 56.0767 215.939 56.0767H214.831V59.3998C214.831 59.9536 215.015 60.1383 215.385 60.1383C215.385 60.1383 215.569 60.1383 215.754 60.1383H215.939L216.123 60.5075V60.6921C215.939 60.6921 215.754 60.8767 215.569 60.8767C214.831 60.8767 214.277 60.3229 214.277 59.5844V56.2613H213.723C213.723 56.2613 213.539 56.2613 213.539 56.0767V55.7075C213.539 55.7075 213.539 55.5229 213.723 55.5229H214.277V54.2306V54.0459L214.831 53.8613H215.016V55.3383H215.939Z" fill="white"/>
<path d="M220.554 55.7082C219.262 55.8928 218.708 56.8159 218.708 58.662V60.3236C218.708 60.3236 218.708 60.5082 218.523 60.5082H217.969C217.969 60.5082 217.785 60.5082 217.785 60.3236V55.339C217.785 55.339 217.785 55.1543 217.969 55.1543H218.339C218.339 55.1543 218.523 55.1543 218.523 55.339V56.0774C218.523 56.0774 218.523 56.262 218.708 56.0774C219.077 55.5236 219.631 55.1543 220.554 54.9697C220.554 54.9697 220.739 54.9697 220.739 55.1543V55.7082H220.554Z" fill="white"/>
<path d="M226.277 59.5851C225.723 60.139 225.17 60.5082 224.431 60.5082C223.323 60.5082 222.585 59.7697 222.585 58.4774V55.339C222.585 55.339 222.585 55.1543 222.77 55.1543H223.323C223.323 55.1543 223.508 55.1543 223.508 55.339V58.2928C223.508 59.2159 224.062 59.7697 224.8 59.7697C225.908 59.7697 226.462 59.0313 226.462 57.5543V55.1543C226.462 55.1543 226.462 54.9697 226.647 54.9697H227.2C227.2 54.9697 227.385 54.9697 227.385 55.1543V60.139C227.385 60.139 227.385 60.3236 227.2 60.3236H226.831C226.831 60.3236 226.647 60.3236 226.647 60.139L226.277 59.5851Z" fill="white"/>
<path d="M232.185 60.3236C231.816 60.5082 231.446 60.5082 231.077 60.5082C229.416 60.5082 228.677 59.4005 228.677 57.739C228.677 56.0774 229.6 54.9697 231.077 54.9697C231.446 54.9697 231.631 54.9697 232 55.1543L232.37 55.339C232.37 55.339 232.37 55.339 232.37 55.5236L232.185 55.8928C232.185 55.8928 232.185 55.8928 232 55.8928H231.631C231.262 55.7082 231.077 55.7082 230.893 55.7082C229.785 55.7082 229.046 56.4467 229.046 57.739C229.046 59.0313 229.6 59.7697 230.708 59.7697C230.893 59.7697 231.262 59.7697 231.631 59.5851H232H232.185L232.37 59.9543V60.139L232.185 60.3236Z" fill="white"/>
<path d="M236.8 55.3383L236.985 55.8921C236.985 55.8921 236.985 56.0767 236.8 56.0767H235.693V59.3998C235.693 59.9536 235.877 60.1383 236.247 60.1383C236.247 60.1383 236.431 60.1383 236.616 60.1383H236.8L236.985 60.5075V60.6921C236.8 60.6921 236.616 60.8767 236.431 60.8767C235.693 60.8767 235.139 60.3229 235.139 59.5844V56.2613H234.585C234.585 56.2613 234.4 56.2613 234.4 56.0767V55.7075C234.4 55.7075 234.4 55.5229 234.585 55.5229H235.139V54.2306V54.0459L235.693 53.8613H235.877V55.3383H236.8Z" fill="white"/>
<path d="M242.523 59.5851C241.97 60.139 241.416 60.5082 240.677 60.5082C239.57 60.5082 238.831 59.7697 238.831 58.4774V55.339C238.831 55.339 238.831 55.1543 239.016 55.1543H239.57C239.57 55.1543 239.754 55.1543 239.754 55.339V58.2928C239.754 59.2159 240.308 59.7697 241.046 59.7697C242.154 59.7697 242.708 59.0313 242.708 57.5543V55.1543C242.708 55.1543 242.708 54.9697 242.893 54.9697H243.446C243.446 54.9697 243.631 54.9697 243.631 55.1543V60.139C243.631 60.139 243.631 60.3236 243.446 60.3236H243.077C243.077 60.3236 242.893 60.3236 242.893 60.139L242.523 59.5851Z" fill="white"/>
<path d="M247.877 55.7082C246.585 55.8928 246.031 56.8159 246.031 58.662V60.3236C246.031 60.3236 246.031 60.5082 245.846 60.5082H245.293C245.293 60.5082 245.108 60.5082 245.108 60.3236V55.339C245.108 55.339 245.108 55.1543 245.293 55.1543H245.662C245.662 55.1543 245.846 55.1543 245.846 55.339V56.0774C245.846 56.0774 245.846 56.262 246.031 56.0774C246.4 55.5236 246.954 55.1543 247.877 54.9697C247.877 54.9697 248.062 54.9697 248.062 55.1543V55.7082H247.877Z" fill="white"/>
<path d="M252.862 60.3236C252.492 60.5082 252.123 60.5082 251.754 60.5082C250.277 60.5082 249.354 59.4005 249.354 57.739C249.354 56.0774 250.277 54.9697 251.754 54.9697C253.046 54.9697 253.785 55.5236 253.785 56.6313C253.785 57.3697 253.231 57.739 252.308 57.9236L250.277 58.2928C250.462 59.2159 251.016 59.7697 251.939 59.7697C252.308 59.7697 252.677 59.7697 252.862 59.5851L253.231 59.4005H253.416L253.6 59.7697V59.9543L252.862 60.3236ZM252.123 57.5543C252.677 57.3697 253.046 57.1851 253.046 56.8159C253.046 56.262 252.492 55.8928 251.754 55.8928C250.831 55.8928 250.092 56.6313 250.092 57.9236L252.123 57.5543Z" fill="white"/>
<path d="M262.647 56.4462L262.831 57C262.831 57 262.831 57.1846 262.647 57.1846H259.323V60.3231C259.323 60.3231 259.323 60.5077 259.139 60.5077H258.77C258.77 60.5077 258.585 60.5077 258.585 60.3231V53.1231C258.585 53.1231 258.585 52.9385 258.77 52.9385H263.385C263.385 52.9385 263.57 52.9385 263.385 53.1231L263.2 53.4923C263.2 53.4923 263.2 53.4923 263.016 53.4923H259.139V56.4462H262.647Z" fill="white"/>
<path d="M266.339 60.3232L265.785 60.5078C265.785 60.5078 265.6 60.5078 265.6 60.3232V55.8924H265.046C265.046 55.8924 264.862 55.8924 264.862 55.7078V55.3386C264.862 55.3386 264.862 55.154 265.046 55.154H266.154C266.154 55.154 266.339 55.154 266.339 55.3386V60.3232ZM266.339 53.1232C266.339 53.4924 266.154 53.677 265.785 53.677C265.416 53.677 265.231 53.4924 265.231 53.1232C265.231 52.7539 265.416 52.5693 265.785 52.5693C266.154 52.5693 266.339 52.9386 266.339 53.1232Z" fill="white"/>
<path d="M269.108 56.0774C269.662 55.5235 270.215 55.1543 270.954 55.1543C272.062 55.1543 272.8 55.8928 272.8 57.1851V60.3235C272.8 60.3235 272.8 60.5081 272.615 60.5081H272.062C272.062 60.5081 271.877 60.5081 271.877 60.3235V57.3697C271.877 56.4466 271.323 55.8928 270.585 55.8928C269.477 55.8928 268.923 56.6312 268.923 58.1081V60.5081C268.923 60.5081 268.923 60.6928 268.738 60.6928H268.185C268.185 60.6928 268 60.6928 268 60.5081V55.5235C268 55.5235 268 55.3389 268.185 55.3389H268.554C268.554 55.3389 268.738 55.3389 268.738 55.5235L269.108 56.0774Z" fill="white"/>
<path d="M275.57 55.3389C275.939 55.1543 276.308 55.1543 276.677 55.1543C277.97 55.1543 278.893 55.8928 278.893 57.1851V60.3235C278.893 60.3235 278.893 60.5081 278.708 60.5081H278.339C278.339 60.5081 278.154 60.5081 278.154 60.3235V59.7697C278.154 59.5851 277.97 59.5851 277.97 59.7697C277.6 60.3235 277.046 60.5081 276.308 60.5081C275.2 60.5081 274.646 59.9543 274.646 59.0312C274.646 58.1081 275.385 57.3697 276.493 57.3697H278.154V57.1851C278.154 56.262 277.6 55.7081 276.677 55.7081C276.308 55.7081 275.939 55.7081 275.754 55.8928L275.385 56.0774H275.2L275.016 55.7081V55.5235L275.57 55.3389ZM276.493 57.9235C275.754 57.9235 275.385 58.2928 275.385 58.8466C275.385 59.4005 275.754 59.7697 276.493 59.7697C277.6 59.7697 278.154 59.2158 278.154 57.9235H276.493Z" fill="white"/>
<path d="M281.477 56.0774C281.661 56.0774 281.661 56.0774 281.477 56.0774C282.031 55.5235 282.585 55.1543 283.323 55.1543C284.431 55.1543 285.169 55.8928 285.169 57.1851V60.3235C285.169 60.3235 285.169 60.5081 284.985 60.5081H284.431C284.431 60.5081 284.246 60.5081 284.246 60.3235V57.3697C284.246 56.4466 283.692 55.8928 282.954 55.8928C281.846 55.8928 281.292 56.6312 281.292 58.1081V60.5081C281.292 60.5081 281.292 60.6928 281.108 60.6928H280.554C280.554 60.6928 280.369 60.6928 280.369 60.5081V55.5235C280.369 55.5235 280.369 55.3389 280.554 55.3389H280.923C280.923 55.3389 281.108 55.3389 281.108 55.5235L281.477 56.0774Z" fill="white"/>
<path d="M290.708 60.3236C290.339 60.5082 289.969 60.5082 289.6 60.5082C287.939 60.5082 287.2 59.4005 287.2 57.739C287.2 56.0774 288.123 54.9697 289.6 54.9697C289.969 54.9697 290.154 54.9697 290.523 55.1543L290.893 55.339C290.893 55.339 290.893 55.339 290.893 55.5236L290.708 55.8928C290.708 55.8928 290.708 55.8928 290.523 55.8928H290.154C289.785 55.7082 289.6 55.7082 289.416 55.7082C288.308 55.7082 287.569 56.4467 287.569 57.739C287.569 59.0313 288.123 59.7697 289.231 59.7697C289.416 59.7697 289.785 59.7697 290.154 59.5851H290.523H290.708L290.893 59.9543V60.139L290.708 60.3236Z" fill="white"/>
<path d="M296.246 60.3236C295.877 60.5082 295.508 60.5082 295.139 60.5082C293.662 60.5082 292.739 59.4005 292.739 57.739C292.739 56.0774 293.662 54.9697 295.139 54.9697C296.431 54.9697 297.17 55.5236 297.17 56.6313C297.17 57.3697 296.616 57.739 295.693 57.9236L293.662 58.2928C293.846 59.2159 294.4 59.7697 295.323 59.7697C295.693 59.7697 296.062 59.7697 296.246 59.5851L296.616 59.4005H296.8L296.985 59.7697V59.9543L296.246 60.3236ZM295.323 57.5543C295.877 57.3697 296.246 57.1851 296.246 56.8159C296.246 56.262 295.693 55.8928 294.954 55.8928C294.031 55.8928 293.293 56.6313 293.293 57.9236L295.323 57.5543Z" fill="white"/>
</svg>
