<svg width="20" height="20" viewBox="0 0 20 20" fill="none" xmlns="http://www.w3.org/2000/svg">
<path d="M12.4999 1.66699H4.99992C4.55789 1.66699 4.13397 1.84259 3.82141 2.15515C3.50885 2.46771 3.33325 2.89163 3.33325 3.33366V16.667C3.33325 17.109 3.50885 17.5329 3.82141 17.8455C4.13397 18.1581 4.55789 18.3337 4.99992 18.3337H14.9999C15.4419 18.3337 15.8659 18.1581 16.1784 17.8455C16.491 17.5329 16.6666 17.109 16.6666 16.667V5.83366L12.4999 1.66699Z" stroke="#333333" stroke-width="1.5" stroke-linecap="round" stroke-linejoin="round"/>
<path d="M11.6667 1.66699V5.00033C11.6667 5.44235 11.8423 5.86628 12.1549 6.17884C12.4675 6.4914 12.8914 6.66699 13.3334 6.66699H16.6667" stroke="#333333" stroke-width="1.5" stroke-linecap="round" stroke-linejoin="round"/>
<path d="M8.33341 7.5H6.66675" stroke="#333333" stroke-width="1.5" stroke-linecap="round" stroke-linejoin="round"/>
<path d="M13.3334 10.833H6.66675" stroke="#333333" stroke-width="1.5" stroke-linecap="round" stroke-linejoin="round"/>
<path d="M13.3334 14.167H6.66675" stroke="#333333" stroke-width="1.5" stroke-linecap="round" stroke-linejoin="round"/>
</svg>
