<svg width="30" height="29" viewBox="0 0 30 29" fill="none" xmlns="http://www.w3.org/2000/svg">
<circle cx="14.5" cy="14.5" r="14.5" fill="#EDEDED"/>
<g clip-path="url(#clip0_12010_4874)">
<path d="M10.8751 12.4893C10.8751 10.6541 12.3628 9.16634 14.198 9.16634C15.8236 9.16634 17.1778 10.3343 17.4647 11.877C17.505 12.0934 17.6597 12.2707 17.8685 12.34C19.0713 12.7389 19.9376 13.8731 19.9376 15.208C19.9376 16.8764 18.5851 18.2288 16.9167 18.2288C16.5831 18.2288 16.3126 18.4993 16.3126 18.833C16.3126 19.1667 16.5831 19.4372 16.9167 19.4372C19.2524 19.4372 21.1459 17.5437 21.1459 15.208C21.1459 13.4605 20.0864 11.9618 18.576 11.3169C18.0591 9.38263 16.2955 7.95801 14.198 7.95801C11.6955 7.95801 9.66675 9.98672 9.66675 12.4893C9.66675 12.5498 9.66794 12.6102 9.6703 12.6702C8.58558 13.2961 7.85425 14.4682 7.85425 15.8122C7.85425 17.8142 9.47722 19.4372 11.4792 19.4372C11.8129 19.4372 12.0834 19.1667 12.0834 18.833C12.0834 18.4993 11.8129 18.2288 11.4792 18.2288C10.1446 18.2288 9.06258 17.1469 9.06258 15.8122C9.06258 14.8109 9.67169 13.9504 10.542 13.5838C10.7938 13.4777 10.9431 13.2158 10.906 12.9451C10.8856 12.7963 10.8751 12.6442 10.8751 12.4893Z" fill="#808080"/>
<path d="M14.0987 15.3606C14.3276 15.1571 14.6726 15.1571 14.9015 15.3606L15.8077 16.1662C16.0571 16.3878 16.0796 16.7697 15.8579 17.0191C15.664 17.2373 15.3474 17.2818 15.1042 17.1411V20.0413C15.1042 20.375 14.8338 20.6455 14.5001 20.6455C14.1664 20.6455 13.8959 20.375 13.8959 20.0413V17.1411C13.6527 17.2818 13.3362 17.2373 13.1423 17.0191C12.9206 16.7697 12.9431 16.3878 13.1924 16.1662L14.0987 15.3606Z" fill="#808080"/>
</g>
<defs>
<clipPath id="clip0_12010_4874">
<rect width="14.5" height="14.5" fill="white" transform="translate(7.25 6.75)"/>
</clipPath>
</defs>
</svg>
