<svg width="26" height="20" viewBox="0 0 26 20" fill="none" xmlns="http://www.w3.org/2000/svg">
<path d="M25.2924 3.76977C24.9961 2.6517 24.123 1.77127 23.0143 1.47247C21.0048 0.929422 12.9467 0.929422 12.9467 0.929422C12.9467 0.929422 4.88871 0.929422 2.87915 1.47247C1.77048 1.77127 0.897274 2.6517 0.600962 3.76977C0.0625 5.79618 0.0625 10.0242 0.0625 10.0242C0.0625 10.0242 0.0625 14.2521 0.600962 16.2787C0.897274 17.3966 1.77048 18.277 2.87915 18.576C4.88871 19.1189 12.9467 19.1189 12.9467 19.1189C12.9467 19.1189 21.0048 19.1189 23.0143 18.576C24.123 18.277 24.9961 17.3966 25.2924 16.2787C25.8309 14.2521 25.8309 10.0242 25.8309 10.0242C25.8309 10.0242 25.8309 5.79618 25.2924 3.76977Z" fill="white"/>
<path d="M10.3115 13.8628L17.0465 10.0243L10.3115 6.18544V13.8628Z" fill="#227CBF"/>
</svg>
